<?xml version="1.0" standalone="no"?>
<!DOCTYPE svg PUBLIC "-//W3C//DTD SVG 1.1//EN" "http://www.w3.org/Graphics/SVG/1.1/DTD/svg11.dtd" >
<svg xmlns="http://www.w3.org/2000/svg" xmlns:xlink="http://www.w3.org/1999/xlink" version="1.1">
<metadata></metadata>
<defs>
<font id="kelvinchregular" horiz-adv-x="1106" >
<font-face units-per-em="2048" ascent="1638" descent="-410" />
<missing-glyph horiz-adv-x="600" />
<glyph unicode="&#xfb01;" horiz-adv-x="1233" d="M1156 0q-84 6 -206 7q-122 -1 -211 -7v70q124 0 124 88v570q0 155 -101 155h-377v-728q4 -85 150 -85v-70q-72 9 -211 9q-138 0 -230 -9v70q127 0 127 85v728l-126 -3l26 88h102v116q17 429 384 444q186 -9 198 -114q-2 -68 -118 -114q-8 125 -122 135 q-165 -14 -180 -183v-284l338 10q205 12 315 92q-6 -121 -6 -186v-726q0 -88 124 -88v-70z" />
<glyph unicode="&#xfb02;" horiz-adv-x="1271" d="M1174 0q-85 9 -212 9q-128 0 -216 -9v70q129 0 129 88v1025q0 252 -245 252t-245 -252v-215l238 10l-32 -110l-206 5v-718q4 -85 150 -85v-70q-72 9 -211 9q-138 0 -230 -9v70q127 0 127 85v718l-126 -3l26 98h100v116q17 429 426 444q158 -6 204 -47q115 36 198 94 q-6 -121 -6 -186v-1231q0 -88 131 -88v-70z" />
<glyph unicode="&#xfb03;" horiz-adv-x="1893" d="M1816 0q-84 6 -206 7q-122 -1 -211 -7v70q124 0 124 88v570q0 155 -101 155h-377v-728q4 -85 150 -85v-70q-72 9 -211 9q-138 0 -230 -9v70q127 0 127 85v728h-496v-728q4 -85 150 -85v-70q-72 9 -211 9q-138 0 -230 -9v70q127 0 127 85v728l-126 -3l26 88h100v66 q17 439 376 444q176 -9 188 -114q-2 -68 -118 -104q-8 125 -112 125q-155 -14 -170 -183v-234h496v116q17 439 376 444q176 -9 188 -114q-2 -68 -118 -104q-8 125 -112 125q-155 -14 -170 -183v-284l338 10q205 12 315 92q-6 -121 -6 -186v-726q0 -88 124 -88v-70z" />
<glyph unicode="&#xfb04;" horiz-adv-x="1921" d="M1824 0q-85 9 -212 9q-128 0 -216 -9v70q129 0 129 88v1025q0 252 -245 252q-235 0 -235 -252v-215l238 10l-32 -100l-206 5v-728q4 -85 150 -85v-70q-72 9 -211 9q-138 0 -230 -9v70q127 0 127 85v728h-496v-728q4 -85 150 -85v-70q-72 9 -211 9q-138 0 -230 -9v70 q127 0 127 85v728l-126 -3l26 88h100v66q17 439 376 444q176 -9 188 -114q-2 -68 -118 -104q-8 125 -112 125q-155 -14 -170 -183v-234h496v116q17 429 416 444q158 -6 204 -47q115 36 198 94q-6 -121 -6 -186v-1231q0 -88 131 -88v-70z" />
<glyph unicode="&#xd;" horiz-adv-x="682" />
<glyph horiz-adv-x="1424" />
<glyph horiz-adv-x="1424" />
<glyph unicode=" "  horiz-adv-x="600" />
<glyph unicode="&#x09;" horiz-adv-x="600" />
<glyph unicode="&#xa0;" horiz-adv-x="600" />
<glyph unicode="!" horiz-adv-x="619" d="M305 374q-66 2 -68 134q0 494 -74 910q70 46 144 46q106 0 106 -200q0 -64 -21 -219t-23 -647q-36 -24 -64 -24zM317 -15q-28 3 -44.5 42.5t-56 56t-42.5 44.5q3 28 42.5 45t56 56t44.5 42q28 -3 45 -42t56 -56t42 -45q-3 -28 -42 -44.5t-56 -56t-45 -42.5z" />
<glyph unicode="&#x22;" horiz-adv-x="684" d="M438 945l-62 482l176 64l46 -22l-54 -504zM138 945l-62 482l176 64l46 -22l-54 -504z" />
<glyph unicode="#" horiz-adv-x="1088" d="M496 128l-26 20l92 322h-184l-86 -300l-100 -42l-26 20l92 322h-154l-22 26l36 100h176l70 246h-150l-26 24l36 100h176l82 286l98 40l28 -22l-88 -304h184l82 286l100 40l26 -22l-86 -304h152l24 -24l-36 -100h-176l-70 -246h152l22 -28l-34 -98h-176l-86 -300zM598 596 l70 246h-184l-70 -246h184z" />
<glyph unicode="$" horiz-adv-x="1038" d="M565 -244h-104l4 238q-152 4 -236 50t-84 120q0 42 82 100q124 -180 242 -180l4 468q-168 56 -247 136t-79 202q0 124 88 215t238 111l-2 250h104l-2 -244q140 -4 217 -44t77 -104q0 -36 -80 -92q-113 138 -216 146l-6 -420q178 -64 256 -143t78 -209q0 -138 -91 -238 t-243 -120v-242zM475 742v386q-82 -12 -128 -62t-46 -124q0 -126 174 -200zM563 88q84 16 134 80t50 152q0 128 -184 204v-436z" />
<glyph unicode="%" horiz-adv-x="1492" d="M340 -58l-76 42l856 1526l80 -44q-518 -908 -860 -1524zM1091 -6q-125 0 -199.5 97.5t-74.5 265.5q0 170 80.5 273.5t210.5 103.5q122 0 197.5 -96.5t75.5 -252.5q0 -182 -79 -286.5t-211 -104.5zM1105 62q137 0 137 268q0 334 -151 334q-137 0 -137 -269 q0 -161 39.5 -247t111.5 -86zM391 724q-125 0 -199.5 97.5t-74.5 265.5q0 170 80.5 273.5t210.5 103.5q122 0 197.5 -96.5t75.5 -252.5q0 -182 -79 -286.5t-211 -104.5zM405 792q137 0 137 268q0 334 -151 334q-137 0 -137 -269q0 -161 39.5 -247t111.5 -86z" />
<glyph unicode="&#x26;" horiz-adv-x="1580" d="M580 854q172 107 225.5 167.5t53.5 131.5q0 88 -56.5 142.5t-147.5 54.5q-88 0 -148 -58t-60 -145q0 -106 133 -293zM513 -19q-175 0 -279.5 97t-116.5 276q7 171 88 254.5t223 164.5q-132 190 -132 322q10 161 112 254t268 93q130 0 216.5 -80t86.5 -201 q0 -102 -74.5 -188t-266.5 -197q153 -231 333 -426q158 188 161 308q0 58 -34.5 80.5t-107.5 23.5v48q108 -10 216 -10t216 10v-47q-145 0 -197 -153.5t-184 -327.5q144 -176 300 -178q102 5 173 47q-75 -157 -253 -158q-204 0 -346 153q-163 -165 -402 -165zM552 115 q183 0 299 110q-207 241 -364 459q-205 -98 -205 -294q6 -107 73 -189t197 -86z" />
<glyph unicode="'" horiz-adv-x="442" d="M169 945l-62 482l176 64l46 -22l-54 -504z" />
<glyph unicode="(" horiz-adv-x="713" d="M624 -314q-444 241 -470 938q33 702 470 976l40 -54q-308 -287 -310 -894q10 -656 310 -912z" />
<glyph unicode=")" horiz-adv-x="718" d="M51 -314l-40 54q310 290 310 896q0 632 -310 910l40 54q445 -237 470 -936q-25 -684 -470 -978z" />
<glyph unicode="*" horiz-adv-x="760" d="M252 544q-84 50 -84 110q0 84 156 190l-286 38q6 118 90 118q76 0 216 -96l-52 284q28 4 50 4q108 0 108 -106q0 -70 -44 -182l254 138q34 -52 34 -92q0 -106 -270 -106l214 -198q-44 -62 -90 -62q-84 0 -172 224z" />
<glyph unicode="+" horiz-adv-x="727" d="M380 203l-109 36v235h-238l-28 28l36 104h230v243l43 28l99 -34v-237h238l28 -38l-34 -94h-232v-243z" />
<glyph unicode="," horiz-adv-x="478" d="M97 -312l-52 66q150 100 150 209q-1 96 -57.5 121.5t-59.5 53.5q3 28 42.5 45t56 56t44.5 42q28 -3 45 -42t56 -56t47 -43t8 -70q0 -70 -73 -174t-207 -208z" />
<glyph unicode="-" horiz-adv-x="802" d="M684 460h-612l-28 28l36 104h610l28 -38z" />
<glyph unicode="&#xad;" horiz-adv-x="802" d="M684 460h-612l-28 28l36 104h610l28 -38z" />
<glyph unicode="." horiz-adv-x="424" d="M211 -5q-28 3 -44.5 42.5t-56 56t-42.5 44.5q3 28 42.5 45t56 56t44.5 42q28 -3 45 -42t56 -56t42 -45q-3 -28 -42 -44.5t-56 -56t-45 -42.5z" />
<glyph unicode="/" horiz-adv-x="711" d="M145 -128h-90l501 1670h90z" />
<glyph unicode="0" d="M606 90q208 10 208 466q-4 514 -242 540q-208 -6 -208 -461q12 -524 242 -545zM572 -20q-374 25 -406 620q25 588 440 621q390 -21 404 -621q-25 -586 -438 -620z" />
<glyph unicode="1" d="M848 0q-140 9 -280 9q-154 -2 -280 -9v70q116 3 160 35t44 132v678q0 68 -15.5 96t-70.5 28q-43 -2 -128 -15l-15 60q205 63 389 152v-995q0 -101 41.5 -135t154.5 -36v-70z" />
<glyph unicode="2" d="M926 0h-767l-29 65q123 134 276 296t243 299t99 248q-9 218 -211 219q-166 -9 -195 -203v-3q-142 0 -149 76q41 201 405 228q318 -9 331 -279q-1 -132 -136 -310t-480 -513h379q93 2 139.5 44t64.5 138l47 -10q-24 -102 -24 -203q0 -49 7 -92z" />
<glyph unicode="3" d="M477 -227q-217 6 -407 172l36 75q169 -129 349 -129q320 27 324 316q-12 291 -308 312q-34 0 -79 -6l-14 68q332 85 332 304q-15 236 -216 237q-162 -4 -178 -167q0 -18 3 -33q-46 -14 -81 -14q-64 0 -79 77q0 22 13 48q99 168 389 187q332 -6 347 -313 q-16 -205 -268 -302q313 -45 335 -364q-30 -448 -498 -468z" />
<glyph unicode="4" d="M709 -307v307h-590l-59 92q486 518 579 1054q138 24 243 93q-139 -591 -660 -1117h487v255q106 90 180 188v-443h177q-49 -75 -70 -137q-35 13 -105 15v-270z" />
<glyph unicode="5" d="M494 -230q-252 0 -337 100q-56 66 -56 125q7 126 133 130q27 0 50 -5q-4 -25 -4 -52q0 -66 34 -124q43 -78 174 -78q157 8 227.5 96.5t70.5 273.5q-14 361 -328 367q-159 -10 -278 -96l-47 31q72 406 99 723q181 -55 340 -55q187 8 388 77l31 -28q-156 -198 -399 -202 q-135 0 -260 56q-31 -264 -52 -417q114 39 261 42q429 -22 453 -446q-23 -506 -500 -518z" />
<glyph unicode="6" d="M619 80q115 0 184.5 84.5t69.5 227.5q0 164 -77.5 262.5t-204.5 98.5q-118 0 -255 -99q-3 -49 -3 -82q0 -240 74 -366t212 -126zM593 -20q-199 0 -320.5 161.5t-121.5 432.5q0 370 199 618t484 248q155 0 155 -102q0 -61 -64 -92q-50 81 -176 81q-377 -40 -408 -570 q169 130 321 130q163 0 272 -123.5t109 -310.5q0 -207 -126.5 -340t-323.5 -133z" />
<glyph unicode="7" d="M300 -240q123 723 625 1306h-666q-92 -6 -125 -175l-47 8q26 127 26 238q0 47 -4 85h953l5 -46q-44 -109 -130.5 -219.5t-185 -277t-176.5 -430.5t-79 -385q1 -50 7 -94z" />
<glyph unicode="8" d="M564 77q106 0 181 80.5t75 195.5q0 225 -327 336q-203 -122 -203 -316q0 -132 76 -214t198 -82zM534 -20q-175 0 -296.5 109.5t-121.5 263.5q0 240 313 391q-270 125 -270 342q0 137 121 245.5t286 108.5q155 0 261 -94.5t106 -222.5q0 -203 -268 -336q323 -126 323 -393 q0 -170 -133.5 -292t-320.5 -122zM603 836q178 111 178 281q0 93 -65 161t-166 68q-94 0 -159.5 -68t-65.5 -153q0 -173 278 -289z" />
<glyph unicode="9" d="M313 -220q-153 0 -153 97q0 62 69 87q39 -65 138 -65q220 10 320 154t122 432q-166 -133 -324 -133q-161 0 -270 123t-109 309q0 191 124 323.5t317 132.5q212 0 332 -160t120 -431q0 -377 -197 -623t-489 -246zM565 491q109 0 250 102q0 544 -285 544 q-115 0 -182.5 -81.5t-67.5 -210.5q0 -161 77.5 -257.5t207.5 -96.5z" />
<glyph unicode=":" horiz-adv-x="535" d="M266 665q-28 3 -44.5 42.5t-56 56t-42.5 44.5q3 28 42.5 45t56 56t44.5 42q28 -3 45 -42t56 -56t42 -45q-3 -28 -42 -44.5t-56 -56t-45 -42.5zM264 12q-28 3 -44.5 42.5t-56 56t-42.5 44.5q3 28 42.5 45t56 56t44.5 42q28 -3 45 -42t56 -56t42 -45q-3 -28 -42 -44.5 t-56 -56t-45 -42.5z" />
<glyph unicode=";" horiz-adv-x="575" d="M271 665q-28 3 -44.5 42.5t-56 56t-42.5 44.5q3 28 42.5 45t56 56t44.5 42q28 -3 45 -42t56 -56t42 -45q-3 -28 -42 -44.5t-56 -56t-45 -42.5zM145 -294l-52 66q150 100 150 209q-1 96 -57.5 121.5t-59.5 53.5q3 28 42.5 45t56 56t44.5 42q28 -3 45 -42t56 -56t47 -43 t8 -70q0 -70 -73 -174t-207 -208z" />
<glyph unicode="&#x3c;" horiz-adv-x="795" d="M596 202l-539 256l-22 31l27 110l585 279l22 -27l-26 -113l-436 -209l446 -211l16 -39z" />
<glyph unicode="=" horiz-adv-x="876" d="M726 650h-612l-28 28l36 104h610l28 -38zM726 350h-612l-28 28l36 104h610l28 -38z" />
<glyph unicode="&#x3e;" horiz-adv-x="791" d="M139 202l-22 27l26 114l436 209l-446 211l-16 39l73 76l539 -256l22 -31l-27 -110z" />
<glyph unicode="?" horiz-adv-x="875" d="M390 380q-78 0 -78 128q0 122 141 307.5t141 354.5q0 208 -198 208q-160 -18 -160 -166q0 -38 10 -86q-64 -28 -106 -28q-81 1 -88 108q1 108 120.5 189.5t299.5 84.5q303 -7 316 -314q-4 -182 -169.5 -350.5t-174.5 -295.5q0 -68 18 -122q-40 -18 -72 -18zM408 -5 q-28 3 -44.5 42.5t-56 56t-42.5 44.5q3 28 42.5 45t56 56t44.5 42q28 -3 45 -42t56 -56t42 -45q-3 -28 -42 -44.5t-56 -56t-45 -42.5z" />
<glyph unicode="@" horiz-adv-x="1860" d="M847 500q54 0 188 77l86 464q-49 19 -83 19q-126 0 -200.5 -137t-74.5 -289q0 -134 84 -134zM960 -81q-385 0 -611 198t-226 559q0 348 245 580.5t605 232.5q330 0 527 -170.5t197 -489.5q0 -239 -110 -368.5t-311 -129.5q-113 0 -178.5 63.5t-65.5 137.5q0 16 3 36 q-153 -171 -263 -171q-67 0 -107 60t-40 160q0 210 123 365t258 155q80 0 127 -51l129 44q-106 -572 -106 -591q0 -130 160 -137q147 7 226.5 111t79.5 296q0 312 -173 467.5t-491 155.5q-299 0 -496.5 -210.5t-197.5 -530.5q0 -328 192 -522.5t520 -194.5q242 0 522 151 l168 -39q-427 -167 -706 -167z" />
<glyph unicode="A" horiz-adv-x="1403" d="M1409 0q-157 8 -247 8q-112 0 -259 -8v70q87 0 112 16.5t25 71.5q0 30 -15 73l-98 304h-500q-120 -307 -120 -377q0 -49 25.5 -68.5t115.5 -19.5v-70q-143 8 -245 8q-82 0 -223 -8v70q69 2 110 28t70 89l480 1218l159 50l441 -1247q34 -80 59.5 -109t109.5 -29v-70z M891 641l-197 598l-226 -598h423z" />
<glyph unicode="B" horiz-adv-x="1289" d="M657 -2q-45 0 -166 5t-203 5q-72 0 -225 -8v70q114 0 146.5 48.5t32.5 153.5v926q0 86 -33 119t-125 33v70q128 -8 253 -8q71 0 174 4t136 4q200 0 318.5 -92.5t118.5 -241.5q0 -237 -245 -340q353 -66 353 -346q0 -175 -142.5 -288.5t-392.5 -113.5zM647 97 q165 0 255.5 79.5t90.5 219.5q0 300 -416 300q-62 0 -159 -4v-560q128 -35 229 -35zM550 781q138 0 200 19q140 61 140 247q0 126 -78 200t-221 74q-47 0 -173 -20v-518q45 -2 132 -2z" />
<glyph unicode="C" horiz-adv-x="1384" d="M771 -20q-687 35 -715 726q37 705 737 734q190 0 413 -77q0 -153 50 -309l-72 -14q-114 281 -429 281q-473 -21 -490 -575q24 -607 536 -653q316 0 441 277l65 -33q-59 -121 -100 -261q-217 -96 -436 -96z" />
<glyph unicode="D" horiz-adv-x="1544" d="M670 89q545 14 545 588q-16 633 -572 644q-97 0 -244 -21v-1180q137 -31 271 -31zM679 -8q-50 0 -182.5 8t-214.5 8t-219 -8v70q118 0 143 55t25 203v870q0 86 -30.5 119t-116.5 33v70q129 -8 207 -8q105 0 230.5 7.5t146.5 7.5q739 -28 752 -701q-22 -712 -741 -734z " />
<glyph unicode="E" horiz-adv-x="1270" d="M1084 0q-307 12 -520 12q-144 0 -501 -12v70q120 0 144.5 71.5t26.5 229.5v827q0 86 -31 119t-119 33v70q340 -14 536 -14q213 0 440 14q0 -145 47 -296l-66 -12q-37 124 -108.5 160t-267.5 36l-253 -4v-517h187q130 0 179.5 22.5t52.5 99.5l63 -4q-14 -122 -14 -196 q0 -59 8 -179l-64 -2q0 103 -55.5 128t-216.5 25h-140v-571q101 -11 249 -11q217 0 303.5 38.5t138.5 194.5l70 -24q-70 -172 -89 -308z" />
<glyph unicode="F" horiz-adv-x="1157" d="M586 0q-127 9 -263 10q-85 0 -260 -10v70q122 0 146.5 56t24.5 219v848q0 86 -31 121.5t-126 35.5v70q372 -12 537 -12q184 0 446 12q0 -131 45 -298l-70 -20q-33 132 -102 169t-268 37q-76 0 -253 -4v-526h177q132 0 183.5 22.5t55.5 101.5l62 -3q-14 -136 -14 -218 q0 -60 6 -161l-64 -6q0 107 -55.5 132t-212.5 25h-138v-386q0 -134 27.5 -174.5t146.5 -40.5v-70z" />
<glyph unicode="G" horiz-adv-x="1438" d="M775 -20q-684 24 -719 718q36 702 759 742q207 0 414 -81q2 -142 50 -253l-71 -42q-71 253 -429 253q-500 -20 -518 -576q18 -621 567 -653q103 0 277 44v233q0 198 -281 198v87q242 -7 494 -7q-39 -146 -39 -293v-293q-349 -77 -504 -77z" />
<glyph unicode="H" horiz-adv-x="1582" d="M1482 0q-157 8 -251 8q-108 0 -256 -8v70q122 0 145 50.5t23 208.5v334h-743v-315q0 -169 22 -223.5t147 -54.5v-70q-148 8 -256 8q-95 0 -250 -8v70q114 0 137.5 55.5t23.5 204.5v747q0 135 -23.5 204t-131.5 69v70q139 -10 244 -10q117 0 247 10v-70 q-117 0 -138.5 -67.5t-21.5 -207.5v-294h743v276q0 175 -21 234t-139 59v70q128 -10 248 -10q104 0 243 10v-70q-106 0 -130.5 -56t-24.5 -200v-764q0 -149 24.5 -204.5t138.5 -55.5v-70z" />
<glyph unicode="I" horiz-adv-x="688" d="M588 0q-165 8 -261 8q-112 0 -264 -8v70q128 0 150.5 46.5t22.5 149.5v857q0 106 -17.5 166.5t-145.5 60.5v70q132 -10 254 -10q107 0 251 10v-70q-126 0 -143.5 -57.5t-17.5 -167.5v-865q0 -105 21 -147.5t150 -42.5v-70z" />
<glyph unicode="J" horiz-adv-x="647" d="M-8 -573q-121 4 -122 102q0 14 4 26q37 -46 138 -51q238 0 238 420v1234q0 108 -28.5 150t-131.5 42l-1 70q185 -7 245 -7q59 0 243 7v-70q-88 0 -116.5 -41.5t-28.5 -146.5v-1054q0 -312 -103 -489t-337 -192z" />
<glyph unicode="K" horiz-adv-x="1477" d="M1436 0q-124 8 -182 8q-80 0 -188 -8q0 61 -103 176l-437 517l-115 -111v-234q0 -194 29 -236t148 -42v-70q-150 8 -268 8q-99 0 -257 -8v70q110 0 138 53.5t28 243.5v703q0 171 -28 225.5t-132 54.5v70q140 -8 251 -8q124 0 254 8v-70q-102 0 -132.5 -48.5t-30.5 -233.5 v-367q541 541 552 599q0 50 -106 50v70q126 -8 247 -8q88 0 220 8v-70q-122 0 -235 -116l-425 -407l549 -644q90 -98 223 -113v-70z" />
<glyph unicode="L" horiz-adv-x="1226" d="M1063 0q-316 10 -571 10q-188 0 -429 -10v70q80 0 124.5 27.5t44.5 108.5v846q0 171 -26.5 234.5t-121.5 63.5v70q101 -10 245 -10q118 0 244 10v-70q-112 0 -135.5 -65.5t-23.5 -242.5v-928h198q425 0 474 229l70 -21q-66 -157 -93 -322z" />
<glyph unicode="M" horiz-adv-x="1880" d="M1819 0q-158 8 -253 8q-104 0 -252 -8v70q99 0 142 19.5t43 82.5q0 14 -112 1002l-396 -903q-52 -115 -73 -220h-64q-12 55 -72 198l-392 873l-70 -886q0 -104 25 -135t143 -31v-70q-140 8 -233 8q-83 0 -221 -8v70q83 0 115.5 13.5t52.5 77.5l95 1071q0 66 -35 92 t-123 26v70q140 -10 185 -10q27 0 174 10q0 -102 334 -827q62 -138 95 -218l280 621q136 310 147 374q2 23 2 50q115 -8 184 -8q70 0 177 8v-70q-93 -2 -125 -33.5t-32 -111.5q0 -87 53.5 -556t65.5 -517q13 -62 140 -62v-70z" />
<glyph unicode="N" horiz-adv-x="1613" d="M1387 -16h-108q-13 39 -125 169l-824 1001q6 -949 19 -1005q12 -47 41.5 -63t121.5 -16v-70q-180 7 -226 7q-94 0 -223 -7v70q89 0 123.5 39.5t45.5 249.5v832q0 83 -31.5 121t-137.5 38v70q90 -7 171 -7q64 0 162 7q20 -64 90 -151l775 -950q0 903 -7 944 q-11 54 -40 70.5t-125 16.5v70q173 -7 226 -7q57 0 229 7v-70q-119 0 -144 -83q-13 -58 -13 -311v-972z" />
<glyph unicode="O" horiz-adv-x="1577" d="M753 -20q-313 0 -505 221t-192 511q0 319 212.5 523.5t486.5 204.5q293 0 495.5 -198t202.5 -528q0 -336 -213.5 -533.5t-486.5 -200.5zM775 90q205 0 335.5 158.5t130.5 432.5q0 288 -146 470t-363 182q-205 0 -334 -156t-129 -421q0 -298 147 -482t359 -184z" />
<glyph unicode="P" horiz-adv-x="1214" d="M412 612q154 0 272.5 42t176.5 114t58 229q-11 308 -346 315q-73 0 -161 -18v-682zM595 0q-142 8 -284 9q-113 0 -248 -9v70q122 0 146.5 53t24.5 174l-2 898q0 86 -30 120.5t-118 34.5v70q132 -10 260 -10q72 0 172 5t129 5q460 -10 468 -397q-4 -255 -133 -350 q-123 -105 -371 -105q-108 0 -197 26v-297q0 -120 24.5 -173.5t158.5 -53.5v-70z" />
<glyph unicode="Q" horiz-adv-x="1614" d="M775 90q205 0 335.5 156.5t130.5 431.5q0 288 -146 471t-363 183q-205 0 -334 -157t-129 -422q0 -298 147 -480.5t359 -182.5zM1264 -531q-136 0 -324.5 181.5t-328.5 181.5q-93 -8 -148 -64.5t-108 -56.5q-29 3 -34 44q1 51 98 75q50 17 100.5 66.5t143.5 91.5 q-244 22 -425.5 226.5t-181.5 494.5q0 319 212.5 525t486.5 206q283 0 490.5 -199.5t207.5 -529.5q0 -293 -181 -492t-451 -239q-162 -38 -227 -100q39 3 73 3q178 -8 358.5 -102t310.5 -99q133 1 211 150q29 -17 33 -59q-30 -285 -316 -304z" />
<glyph unicode="R" horiz-adv-x="1382" d="M1162 -16q-189 0 -278.5 344.5t-397.5 344.5l-1 35q144 12 244 46q184 84 184 306q-23 255 -332 267q-76 0 -162 -14v-1018q0 -150 31 -187.5t149 -37.5v-70q-160 8 -280 8q-84 0 -256 -8v70q106 0 137 36.5t31 180.5v911q0 86 -28 119t-118 33v70q169 -9 260 -9 q67 0 166.5 5.5t132.5 5.5q445 -10 460 -362q-8 -252 -283 -368q147 -22 226 -268t149 -299.5t131 -53.5l14 -48q-79 -31 -179 -39z" />
<glyph unicode="S" horiz-adv-x="1145" d="M484 -20q-186 0 -360 65q2 23 2 64q0 142 -67 236l71 41q118 -294 403 -294q305 10 328 266q0 203 -368 299.5t-368 377.5q29 391 459 405q133 0 333 -58q0 -149 72 -251l-78 -43q-67 237 -347 241q-270 -6 -282 -236q0 -197 371.5 -288t371.5 -378q-31 -436 -541 -447z " />
<glyph unicode="T" horiz-adv-x="1344" d="M958 0q-135 8 -254 8q-102 0 -250 -8v70q91 0 125.5 42t34.5 258v933h-198q-141 0 -192 -38.5t-116 -153.5l-53 31q65 145 65 298q55 -20 333 -20h539q256 0 304 20q0 -171 53 -298l-65 -29q-41 113 -95 150.5t-199 39.5h-186v-933q0 -217 30 -258.5t124 -41.5v-70z" />
<glyph unicode="U" horiz-adv-x="1525" d="M761 -32q-250 0 -405 132.5t-155 483.5v513q0 153 -21.5 203t-133.5 50v70q141 -7 247 -7q125 0 259 7v-70q-118 0 -141.5 -52t-23.5 -246v-357q0 -340 97 -462.5t313 -123.5q206 1 302 115.5t96 369.5q0 587 -22 671q-14 49 -42 67t-107 18v70q173 -7 226 -7q54 0 227 7 v-70q-123 0 -142 -78t-19 -332v-300q0 -424 -180 -548t-375 -124z" />
<glyph unicode="V" horiz-adv-x="1369" d="M750 -30h-129q0 50 -56 223l-252 701q-129 352 -174 404t-127 52v70q147 -7 252 -7q124 0 258 7v-70q-77 -6 -105.5 -20.5t-28.5 -55.5q0 -52 45 -186l293 -830q196 500 275.5 720.5t79.5 288.5q0 48 -27 65.5t-107 17.5v70q117 -7 227 -7q97 0 224 7v-70 q-99 -5 -137.5 -66t-86.5 -196l-335 -828q-89 -226 -89 -290z" />
<glyph unicode="W" horiz-adv-x="1949" d="M1320 -30h-118q0 61 -212 666q-246 -605 -250 -666h-119q0 68 -176 566q-230 652 -285 733t-148 81v70q147 -7 252 -7q124 0 258 7v-70q-77 -6 -105.5 -18.5t-28.5 -53.5q0 -52 45 -186l293 -830q128 326 206 533q-148 400 -186 468q-55 87 -154 87v70q148 -7 253 -7 q108 3 181 3l148 -3q97 0 224 7v-70q-115 0 -147 -72.5t-164 -394.5l219 -621q196 500 276 720.5t80 288.5q0 48 -27.5 63.5t-106.5 15.5v70q116 -7 227 -7q97 0 223 7v-70q-99 0 -139 -72.5t-84 -185.5q-429 -1050 -435 -1122zM1027 1055q54 159 54 216q0 68 -54 72 q-58 -4 -58 -65q0 -52 58 -223z" />
<glyph unicode="X" horiz-adv-x="1442" d="M1387 0q-153 8 -264 8q-93 0 -250 -8v70q124 0 124 48q0 26 -64 123l-250 378l-171 -250q-145 -212 -145 -253q0 -46 130 -46v-70q-146 8 -231 8q-99 0 -237 -8v70q76 0 115.5 25t64.5 55q35 43 414 558q-345 541 -368 571q-57 71 -154 71v70q134 -10 237 -10 q118 0 248 10v-70q-109 0 -109 -43q0 -31 91 -173l171 -272l150 226q122 177 122 213q0 49 -107 49v70q124 -10 212 -10q103 0 217 10v-70q-112 -7 -166.5 -75.5t-83.5 -109.5t-284 -393l334 -500q76 -115 120.5 -158.5t133.5 -43.5v-70z" />
<glyph unicode="Y" horiz-adv-x="1239" d="M909 0q-163 8 -282 8q-103 0 -280 -8v70q128 0 157.5 41t35.5 159v352l-315 540q-47 80 -82.5 132.5t-131.5 55.5v70q146 -10 247 -10q89 2 239 10v-70q-123 0 -123 -52q0 -17 66 -140l236 -425q318 519 318 563q0 54 -116 54v70q118 -10 202 -10q99 0 208 10v-70 q-101 0 -143 -62t-176 -279l-245 -381v-362q6 -118 30.5 -157t154.5 -39v-70z" />
<glyph unicode="Z" horiz-adv-x="1377" d="M1176 -10q-221 12 -430 12q-449 0 -631 -12l-33 69q49 43 153 182l741 1037h-314q-259 0 -354 -30.5t-156 -165.5l-61 35q81 137 87 313q155 -10 390 -10h331q158 0 300 10l28 -60q-73 -66 -161 -184l-724 -1023h287q336 0 417.5 31.5t184.5 197.5l67 -29 q-98 -180 -122 -373z" />
<glyph unicode="[" horiz-adv-x="680" d="M548 -334h-448v1934h442l36 -28l-30 -96h-278v-1686h272l38 -32z" />
<glyph unicode="\" horiz-adv-x="1060" d="M924 -334l-128 52l-696 1858l40 24l126 -50l694 -1858z" />
<glyph unicode="]" horiz-adv-x="680" d="M580 -334h-442l-36 30l28 94h280v1686h-272l-38 28l30 96h450v-1934z" />
<glyph unicode="^" horiz-adv-x="1008" d="M802 566l-38 26l-282 724l-250 -680l-108 -70l-24 26l322 870l134 88l352 -914z" />
<glyph unicode="_" horiz-adv-x="900" d="M900 -256h-900v126h900v-126z" />
<glyph unicode="`" horiz-adv-x="542" d="M392 1079q-98 213 -292 300l16 48l134 42q149 -130 192 -349z" />
<glyph unicode="a" horiz-adv-x="1017" d="M417 103q80 0 224 89v364q-42 -107 -212.5 -134.5t-170.5 -164.5q1 -154 159 -154zM789 -20q-135 0 -144 135q-200 -135 -306 -135q-239 0 -239 267q0 221 271.5 264t272.5 242q0 128 -147 128q-154 0 -166 -159q0 -19 2 -27q-26 -4 -46 -4q-119 0 -122 97 q14 184 318 194q340 0 340 -295v-485q0 -106 48 -106q32 1 122 44l30 -61q-154 -99 -234 -99z" />
<glyph unicode="b" horiz-adv-x="1157" d="M534 84q353 13 356 389q0 389 -348 389q-93 -1 -205 -105v-646q59 -25 197 -27zM485 -20q-211 8 -320 32v1235q-2 152 -103 152v61q166 37 281 112q-6 -118 -6 -182v-576q147 163 323 163q392 -20 400 -440q-16 -533 -575 -557z" />
<glyph unicode="c" horiz-adv-x="925" d="M493 -20q-165 0 -285.5 127.5t-120.5 341.5q0 219 132 379t360 160q258 -7 264 -117q0 -72 -63 -100q-54 127 -225 127q-94 0 -189 -90.5t-95 -308.5q0 -165 86 -280t230 -115q133 5 248 81l39 -71q-171 -134 -381 -134z" />
<glyph unicode="d" horiz-adv-x="1137" d="M563 108q97 3 186 40v691q-74 30 -158 32q-309 -8 -318 -381q12 -365 290 -382zM749 -29v128q-119 -116 -295 -119q-347 27 -367 471q29 488 436 524q130 0 226 -64v334q0 158 -104 158v63q171 39 284 118q-6 -124 -6 -190v-1063q1 -122 20 -185t97 -65v-46z" />
<glyph unicode="e" horiz-adv-x="1027" d="M510 -20q-223 0 -323 141t-100 342q0 212 129 368.5t336 156.5q321 0 371 -407l-650 -142q28 -349 317 -349q206 0 293 168l47 -34q-131 -244 -420 -244zM267 505l346 77q125 28 125 143q-19 180 -198 180q-271 -28 -273 -400z" />
<glyph unicode="f" horiz-adv-x="691" d="M535 0q-72 9 -211 9q-138 0 -230 -9v70q127 0 127 85v718l-126 -3l26 98h102v116q17 429 374 444q176 -9 188 -114q-2 -68 -118 -104q-8 115 -112 125q-155 -14 -170 -183v-284l238 10l-32 -110l-206 5v-718q4 -85 150 -85v-70z" />
<glyph unicode="g" horiz-adv-x="1041" d="M440 339q217 0 217 293q-8 281 -210 289q-199 0 -199 -294q15 -285 192 -288zM376 -559q-305 0 -313 196q2 116 110 221l47 -16q-26 -57 -29 -138q5 -144 214 -154q157 0 269.5 50t112.5 197q0 133 -292 134q-373 0 -373 171q11 112 129 201q-173 103 -173 312 q18 361 381 373q144 0 224 -33q35 -3 67 -3q117 0 208 33q-30 -66 -88.5 -90t-98.5 -24q54 -82 57 -238q-16 -336 -394 -357q-69 0 -125 10q-32 -54 -32 -120q0 -71 265 -71q411 0 411 -236q-37 -418 -577 -418z" />
<glyph unicode="h" horiz-adv-x="1243" d="M1166 0q-83 9 -204 9t-209 -9v70q123 0 124 87v494q0 225 -190 225q-168 0 -308 -102v-617q0 -87 123 -87v-70q-83 9 -204 9t-209 -9v70q123 0 123 87v1098q-1 154 -101 154v61q164 38 273 114q-5 -95 -5 -747q189 151 403 151q146 0 203.5 -83.5t57.5 -266.5v-481 q0 -87 123 -87v-70z" />
<glyph unicode="i" horiz-adv-x="588" d="M262 1186q-28 3 -44.5 42.5t-56 56t-42.5 44.5q3 28 42.5 45t56 56t44.5 42q28 -3 45 -42t56 -56t42 -45q-3 -28 -42 -44.5t-56 -56t-45 -42.5zM511 0q-84 6 -206 7q-122 -1 -211 -7v70q124 0 124 88v580q0 155 -101 155v62q166 38 276 115q-6 -121 -6 -186v-726 q0 -88 124 -88v-70z" />
<glyph unicode="j" horiz-adv-x="526" d="M258 1185q-28 3 -44.5 42.5t-56 56t-42.5 44.5q3 28 42.5 45t56 56t44.5 42q28 -3 45 -42t56 -56t42 -45q-3 -28 -42 -44.5t-56 -56t-45 -42.5zM-11 -583q-81 0 -100 82q0 41 23 73q56 -60 148 -60q154 1 154 242v984q0 155 -101 155v62q166 38 276 115q-6 -121 -6 -186 v-779q-1 -339 -112.5 -513.5t-281.5 -174.5z" />
<glyph unicode="k" horiz-adv-x="1164" d="M1129 0q-116 10 -177 10q-33 0 -139 -10l-1 20q-3 58 -287 519l-139 -129v-252q0 -88 131 -88v-70q-85 9 -212 9q-128 0 -216 -9v70q129 0 129 88v1085q-1 155 -102 155v62q166 38 276 115q-6 -121 -6 -186v-876q353 327 353 361q0 26 -86 26v68q100 -10 199 -10 q100 0 199 10l1 -67h-25q-97 0 -385 -257l267 -443q96 -131 220 -131v-70z" />
<glyph unicode="l" horiz-adv-x="614" d="M517 0q-85 9 -212 9q-128 0 -216 -9v70q129 0 129 88v1085q-1 155 -102 155v62q166 38 276 115q-6 -121 -6 -186v-1231q0 -88 131 -88v-70z" />
<glyph unicode="m" horiz-adv-x="1805" d="M1728 0q-83 9 -204 9t-209 -9v70q123 0 124 87v494q0 225 -190 225q-138 0 -267 -108q9 -57 9 -130v-481q0 -87 123 -87v-70q-83 9 -204 9t-209 -9v70q123 0 124 87v494q0 225 -190 225q-128 0 -258 -102v-617q0 -87 123 -87v-70q-83 9 -204 9t-209 -9v70q123 0 123 87 v528q-1 154 -101 154v61q164 38 273 114q-5 -95 -5 -177q179 151 353 151q197 0 240 -167q181 167 374 167q146 0 203.5 -83.5t57.5 -266.5v-481q0 -87 123 -87v-70z" />
<glyph unicode="n" horiz-adv-x="1144" d="M1114 0q-83 9 -204 9t-209 -9v70q123 0 124 87v494q0 225 -190 225q-128 0 -258 -102v-617q0 -87 123 -87v-70q-83 9 -204 9t-209 -9v70q123 0 123 87v528q-1 154 -101 154v61q164 38 273 114q-5 -95 -5 -177q179 151 353 151q146 0 203.5 -83.5t57.5 -266.5v-481 q0 -87 123 -87v-70z" />
<glyph unicode="o" horiz-adv-x="1123" d="M563 51q122 0 190 106.5t68 296.5q0 214 -74 338.5t-198 124.5q-122 0 -190 -106t-68 -297q0 -215 73 -339t199 -124zM549 -20q-201 0 -332 138t-131 362q0 222 135.5 365t341.5 143q201 0 332 -143t131 -367q0 -222 -135 -360t-342 -138z" />
<glyph unicode="p" horiz-adv-x="1119" d="M507 -580q-72 9 -211 9q-138 0 -230 -9v70q111 0 125 67v1140q0 155 -101 155v62q166 38 276 115q-5 -112 -5 -157q162 116 293 116q345 -7 368 -458q-21 -503 -438 -550q-105 0 -223 77v-479q0 -88 146 -88v-70zM517 94q145 0 231 109t86 290q0 375 -356 375 q-66 -1 -117 -25v-716q72 -33 156 -33z" />
<glyph unicode="q" horiz-adv-x="1070" d="M1036 -580q-92 9 -230 9q-139 0 -211 -9v70q146 0 146 88v520q-114 -100 -291 -118q-337 14 -363 481q40 504 439 527q135 -2 215 -67v23l168 58v-1424q0 -88 127 -88v-70zM608 105q89 3 133 28v715q-64 37 -152 37q-313 -10 -326 -375q14 -390 345 -405z" />
<glyph unicode="r" horiz-adv-x="950" d="M528 0q-72 9 -221 9q-128 0 -220 -9v70q127 0 127 88v540q0 127 -92 127v63q138 51 260 140v-311q156 301 330 301q143 0 172 -149q0 -92 -40 -134q-45 117 -160 117q-160 -2 -302 -240v-454q0 -88 146 -88v-70z" />
<glyph unicode="s" horiz-adv-x="853" d="M386 -20q-175 0 -269 69q3 25 3 52q0 71 -20 141l59 14q35 -176 263 -184q166 11 172 152q0 152 -242 213t-242 264q21 273 332 287q144 0 233 -46q10 -101 32 -184l-59 -20q-57 155 -218 157q-171 -8 -183 -136q3 -148 243.5 -197t242.5 -268q-16 -297 -347 -314z" />
<glyph unicode="t" horiz-adv-x="705" d="M426 -20q-251 0 -251 277v633h-125v51q223 50 243 299l50 -11v-238h253l-20 -101h-233v-516q0 -273 178 -273q57 0 119 44l30 -39q-93 -122 -244 -126z" />
<glyph unicode="u" horiz-adv-x="1124" d="M756 -30v132q-203 -122 -348 -122q-249 0 -249 323v438q0 172 -82 172v30l251 56v-631q0 -261 224 -261q92 0 204 62v564q0 175 -81 176l-1 34l254 56v-618q6 -177 23.5 -234t95.5 -59v-46z" />
<glyph unicode="v" horiz-adv-x="993" d="M548 -30h-88l-342 845q-35 83 -125 83v70q70 -6 194 -6q154 0 229 6v-70q-96 0 -96 -63q0 -20 6 -35l212 -603q230 628 230 640q0 61 -118 61v70q71 -6 176 -6q104 0 177 6v-70q-117 0 -147 -83z" />
<glyph unicode="w" horiz-adv-x="1481" d="M1070 -23h-72l-263 693l-236 -693h-73l-318 839q-32 82 -115 82v70q65 -6 196 -6t199 6v-70q-87 0 -87 -62q0 -20 5 -34l193 -590q189 548 189 560q0 51 -34.5 88.5t-90.5 37.5v70q63 -6 195 -6q131 0 199 6v-70q-87 0 -87 -62q0 -20 5 -34l194 -591l204 600q4 12 4 27 q0 60 -107 60v70q63 -6 159 -6q95 0 162 6v-70q-106 0 -134 -82z" />
<glyph unicode="x" horiz-adv-x="1082" d="M1047 0q-84 9 -213 9q-140 0 -230 -9v70q106 0 106 37q0 14 -25 53l-168 256l-176 -238q-37 -53 -37 -75q0 -33 72 -33v-70q-87 9 -164 9t-159 -9v70q103 0 161 77l265 330l-245 343q-56 78 -118 78v70q72 -7 197 -7q136 0 199 7v-70q-83 0 -83 -41q0 -21 19 -51 l141 -219l156 201q29 39 29 64q0 46 -90 46v70q63 -7 161 -7t164 7v-70q-74 0 -138 -81l-240 -290l253 -362q64 -95 163 -95v-70z" />
<glyph unicode="y" horiz-adv-x="1037" d="M124 -554q-148 3 -162 116q2 60 40 90q32 -69 106 -70q140 0 260 286l59 132q-313 834 -345 866t-78 32v70q136 -12 196 -12q58 0 208 12v-70q-78 0 -98 -12t-20 -50q0 -28 228 -634q252 586 252 638q0 36 -25 47t-83 11v70q90 -10 172 -10q66 0 168 10v-70 q-74 0 -104 -60q-58 -136 -372 -840q-102 -315 -185 -433.5t-217 -118.5z" />
<glyph unicode="z" horiz-adv-x="996" d="M886 -6q-132 6 -377 6q-255 0 -397 -6l-32 71q115 87 238 264l374 497l-305 6q-187 0 -244 -125l-61 32q71 111 83 237q115 -8 230 -8h234q128 0 255 7l34 -60q-83 -65 -236 -271l-382 -509q139 15 389 15q151 0 215 131l57 -39q-61 -111 -75 -248z" />
<glyph unicode="{" horiz-adv-x="872" d="M772 -244q-398 0 -398 346v202q0 298 -274 298v68q274 0 274 300v200q0 346 398 346v-56q-222 0 -222 -266v-136q0 -397 -266 -422q266 -18 266 -422v-138q0 -262 222 -262v-58z" />
<glyph unicode="|" horiz-adv-x="331" d="M133 -494l-33 32v1984l98 58l33 -32v-1980z" />
<glyph unicode="}" horiz-adv-x="874" d="M100 -244v58q224 0 224 262v138q0 410 264 422q-264 12 -264 422v136q0 266 -224 266v56q402 0 402 -346v-200q0 -300 272 -300v-68q-272 0 -272 -298v-202q0 -346 -402 -346z" />
<glyph unicode="~" horiz-adv-x="1174" d="M158 448l-58 22q141 231 328 240q78 0 201 -65t197 -65q117 8 190 130l58 -20q-143 -226 -328 -240q-76 0 -200 64t-200 64q-120 -7 -188 -130z" />
<glyph unicode="&#xa1;" horiz-adv-x="493" d="M249 -544q-106 7 -106 200q0 64 21 219t23 647q36 24 64 24q66 -2 68 -160q0 -468 74 -884q-70 -46 -144 -46zM243 665q-28 3 -44.5 42.5t-56 56t-42.5 44.5q3 28 42.5 45t56 56t44.5 42q28 -3 45 -42t56 -56t42 -45q-3 -28 -42 -44.5t-56 -56t-45 -42.5z" />
<glyph unicode="&#xa2;" horiz-adv-x="886" d="M518 -38h-94l2 352q-303 49 -326 382q9 348 330 416l-6 348h96l-6 -340l40 -2q193 -3 202 -110q0 -34 -54 -82q-90 95 -190 100v-600l28 -2q82 0 198 94l48 -64q-130 -122 -272 -140zM430 436v588q-172 -41 -176 -282q0 -238 176 -306z" />
<glyph unicode="&#xa3;" horiz-adv-x="1242" d="M832 -20q-102 0 -213 46.5t-219 46.5q-75 0 -122 -44.5t-111 -44.5q-48 0 -49 71q3 98 134.5 157.5t131.5 253.5q-4 108 -36 191l-243 -9l31 114l176 -2q-57 158 -57 280q17 377 421 400q350 0 373 -273q-6 -107 -98 -110q-24 0 -53 8q15 33 15 83q-12 191 -243 199 q-237 -13 -246 -261q2 -133 75 -326l289 7l-35 -117l-221 7q12 -66 13 -129q0 -200 -169 -358q95 38 169 38q82 0 209 -43t188 -43q144 0 172 101q23 -25 23 -63q0 -57 -83.5 -118.5t-221.5 -61.5z" />
<glyph unicode="&#xa4;" horiz-adv-x="1272" d="M1100 250l-206 208q-114 -90 -259 -90q-143 0 -257 90l-206 -208l-72 74l206 204q-88 116 -88 257q0 139 88 255l-206 206l72 74l206 -208q116 90 257 90q143 0 259 -90l206 208l72 -74l-206 -206q86 -112 86 -255q0 -145 -86 -257l206 -204zM635 472q131 0 223 92 t92 221q0 131 -92 223t-223 92q-129 0 -220 -92t-91 -223q0 -129 91 -221t220 -92z" />
<glyph unicode="&#xa5;" horiz-adv-x="1242" d="M921 0q-163 8 -282 8q-103 0 -280 -8v70q128 0 157.5 41t35.5 159v352l-315 540q-47 80 -82.5 132.5t-131.5 55.5v70q146 -10 247 -10q89 2 239 10v-70q-123 0 -123 -52q0 -17 66 -140l236 -425q318 519 318 563q0 54 -116 54v70q118 -10 202 -10q99 0 208 10v-70 q-101 0 -143 -62t-176 -279l-245 -381v-362q6 -118 30.5 -157t154.5 -39v-70zM945 244h-612l-28 28l36 104h610l28 -38zM945 543h-612l-28 28l36 104h610l28 -38z" />
<glyph unicode="&#xa6;" horiz-adv-x="332" d="M146 626l-46 32v792l85 60l47 -32v-792zM143 -426l-43 36v780l83 62l49 -36v-780z" />
<glyph unicode="&#xa7;" horiz-adv-x="1007" d="M469 -258q-110 0 -229 46.5t-122 128.5q0 57 98 76q85 -185 267 -197q83 0 137.5 54.5t54.5 146.5q0 160 -286.5 306.5t-288.5 351.5q1 191 194 304q-108 112 -108 224q0 134 100 215.5t260 81.5q111 0 195 -46t88 -107q-11 -60 -98 -64q-92 159 -225 159 q-82 0 -124.5 -49t-42.5 -114q8 -162 286 -296t282 -350q0 -173 -186 -308q116 -121 116 -239q0 -136 -102 -230t-266 -94zM676 341q106 72 106 180q0 136 -173.5 230.5t-279.5 172.5q-107 -78 -107 -177q9 -134 166.5 -222.5t287.5 -183.5z" />
<glyph unicode="&#xa8;" horiz-adv-x="857" d="M615 1187q-28 3 -44.5 42.5t-56 56t-42.5 44.5q3 28 42.5 45t56 56t44.5 42q28 -3 45 -42t56 -56t42 -45q-3 -28 -42 -44.5t-56 -56t-45 -42.5zM244 1187q-28 3 -44.5 42.5t-56 56t-42.5 44.5q3 28 42.5 45t56 56t44.5 42q28 -3 45 -42t56 -56t42 -45q-3 -28 -42 -44.5 t-56 -56t-45 -42.5z" />
<glyph unicode="&#xa9;" horiz-adv-x="1195" d="M606 394q-206 0 -354.5 144.5t-148.5 358.5q0 215 150.5 359.5t353.5 144.5q219 0 369 -165q133 -145 133 -339q0 -202 -144.5 -352.5t-358.5 -150.5zM606 464q181 0 306.5 128t125.5 305q0 181 -127 307.5t-305 126.5q-181 0 -308 -126.5t-127 -307.5q0 -180 127 -306.5 t308 -126.5zM604 576q-287 13 -299 317q0 134 89.5 225t226.5 91q83 0 202 -42v-36q0 -67 20 -134l-59 -9q-27 147 -170 147q-177 -7 -184 -226q10 -247 200 -258q129 9 162 135l56 -24q-33 -85 -48 -141q-108 -45 -196 -45z" />
<glyph unicode="&#xaa;" horiz-adv-x="743" d="M293 772q42 0 116 42v136q-3 -6 -104.5 -30t-101.5 -78q0 -70 90 -70zM495 683q-77 0 -82 67q-100 -60 -164 -60q-149 0 -149 142q6 128 161 153t156 115q0 67 -78 67q-77 0 -83 -83q0 -9 4 -22q-29 -4 -41 -4q-73 0 -82 60q9 106 194 112q195 0 195 -164v-252 q0 -46 15 -46q16 1 76 27l26 -49q-98 -63 -148 -63zM596 544h-462l-30 31l28 72h462l29 -29z" />
<glyph unicode="&#xab;" horiz-adv-x="1012" d="M864 12l-374 418l2 74l372 414l46 -34l-220 -416l222 -420zM474 12l-374 418l2 74l372 414l46 -34l-220 -416l222 -420z" />
<glyph unicode="&#xac;" horiz-adv-x="1036" d="M834 192l-28 28v296h-678l-28 28l42 94h762l32 -26v-364z" />
<glyph unicode="&#xae;" horiz-adv-x="1186" d="M789 598q-78 0 -109 142t-162 142v34q59 5 107 19q71 32 71 119q-9 96 -128 101q-22 0 -58 -4v-417q0 -59 10.5 -72t64.5 -13v-49q-77 5 -127 5q-35 0 -117 -5v49q49 0 59.5 13t10.5 69v384q0 32 -9 43t-52 11v50q81 -5 119 -5q28 0 69.5 2t55.5 2q196 -7 202 -164 q-3 -112 -91 -149q32 -5 59.5 -110t49.5 -124.5t51 -19.5l12 -37q-44 -12 -88 -16zM593 394q-206 0 -354.5 144.5t-148.5 358.5q0 215 150.5 359.5t353.5 144.5q219 0 369 -165q133 -145 133 -339q0 -202 -144.5 -352.5t-358.5 -150.5zM593 464q181 0 306.5 128t125.5 305 q0 181 -127 307.5t-305 126.5q-181 0 -308 -126.5t-127 -307.5q0 -180 127 -306.5t308 -126.5z" />
<glyph unicode="&#xaf;" horiz-adv-x="900" d="M756 1176h-630l-26 26l46 114h630l24 -26z" />
<glyph unicode="&#xb0;" horiz-adv-x="613" d="M306 992q-87 0 -146.5 59.5t-59.5 146.5t59.5 147t146.5 60t147 -60t60 -147t-59.5 -146.5t-147.5 -59.5zM306 1079q47 0 83 35.5t36 83.5q0 50 -34.5 84t-84.5 34t-83.5 -34t-33.5 -84t34.5 -84.5t82.5 -34.5z" />
<glyph unicode="&#xb1;" horiz-adv-x="874" d="M475 333l-109 36v235h-238l-28 28l36 104h230v243l43 28l99 -34v-237h238l28 -38l-34 -94h-232v-243zM740 120h-612l-28 28l36 104h610l28 -38z" />
<glyph unicode="&#xb2;" horiz-adv-x="631" d="M522 894h-402l-20 44q66 71 142.5 151t120.5 146.5t48 118.5q-4 99 -95 99q-75 -4 -88 -92v-10q-90 0 -95 48q23 107 213 122q169 -5 176 -148q-1 -69 -70 -159t-224 -239h165q41 0 62 18.5t32 73.5l44 -9q-14 -60 -14 -109q0 -23 5 -55z" />
<glyph unicode="&#xb3;" horiz-adv-x="675" d="M316 760q-113 4 -216 95l26 57q92 -71 178 -71q146 13 147 150q-5 140 -139 150q-16 0 -47 -5l-11 53q163 44 163 148q-7 110 -93 110q-72 -1 -79 -75q0 -8 3 -23q-33 -10 -52 -10q-40 0 -49 48q0 42 55.5 83t154.5 48q176 -4 184 -170q-9 -112 -105 -149 q127 -19 139 -190q-16 -238 -259 -249z" />
<glyph unicode="&#xb4;" horiz-adv-x="541" d="M150 1088l-50 41q42 220 190 350l135 -41l16 -48q-194 -88 -291 -302z" />
<glyph unicode="&#xb5;" horiz-adv-x="1241" d="M163 -495l-72 30q155 534 155 1226q0 125 -132 125v41q169 26 246 67l39 -44v-562q0 -75 52 -157.5t134 -82.5q156 0 263 160v470q-10 105 -39 155q109 31 179 61l29 -39q-11 -52 -16 -166v-501q0 -171 39 -171q52 5 108 29l11 -47q-170 -113 -227 -115q-76 0 -84 215 q-145 -214 -296 -219q-126 4 -222 160l-61 -373q0 -128 80 -191q-87 -25 -186 -71z" />
<glyph unicode="&#xb6;" horiz-adv-x="1154" d="M1054 0q-170 16 -254 16v1298h-90l2 -1298q-128 0 -274 -16v70q138 0 165 46t27 190v298q-76 -14 -144 -14q-386 0 -386 428q0 410 390 410q22 0 77 -4t195 -4q156 0 270 8v-70q-90 0 -121 -34t-31 -122v-838q0 -186 24 -240t150 -54v-70zM630 698v608q-325 0 -328 -290 q0 -318 328 -318z" />
<glyph unicode="&#xb7;" horiz-adv-x="486" d="M243 580q-28 3 -44.5 42.5t-56 56t-42.5 44.5q3 28 42.5 45t56 56t44.5 42q28 -3 45 -42t56 -56t42 -45q-3 -28 -42 -44.5t-56 -56t-45 -42.5z" />
<glyph unicode="&#xb8;" horiz-adv-x="482" d="M130 -434l-30 58q132 15 138 124q-9 88 -124 96l139 156h76l-83 -100q132 -22 136 -132q-19 -160 -252 -202z" />
<glyph unicode="&#xb9;" horiz-adv-x="515" d="M415 889q-80 6 -150 6q-77 -1 -150 -6v56q65 1 83.5 15t18.5 59v344q0 30 -5.5 41t-27.5 11q-21 -1 -71 -9l-13 48q111 34 217 85v-518q0 -46 17.5 -60.5t80.5 -15.5v-56z" />
<glyph unicode="&#xba;" horiz-adv-x="715" d="M352 748q53 0 85 49.5t32 142.5q0 104 -35 162.5t-89 58.5t-85.5 -49t-31.5 -142q0 -106 34 -164t90 -58zM345 689q-107 0 -175.5 75t-68.5 191q0 114 71 189.5t180 75.5q106 0 174.5 -75.5t68.5 -190.5t-70.5 -190t-179.5 -75zM592 544h-468l-24 28l25 74h468l22 -25z " />
<glyph unicode="&#xbb;" horiz-adv-x="1003" d="M531 12l-48 36l220 418l-220 418l48 34l372 -416v-72zM148 12l-48 36l220 418l-220 418l48 34l372 -416v-72z" />
<glyph unicode="&#xbc;" horiz-adv-x="1404" d="M450 889q-80 6 -150 6q-77 -1 -150 -6v56q65 1 83.5 15t18.5 59v344q0 30 -5.5 41t-27.5 11q-21 -1 -71 -9l-13 48q111 34 217 85v-518q0 -46 17.5 -60.5t80.5 -15.5v-56zM192 -162l-92 65q439 632 1114 1681l90 -63q-457 -662 -1112 -1683zM1023 -381v176h-290l-37 57 q246 262 293 544q74 13 146 60q-76 -333 -322 -580h210v122q56 47 110 119v-241h97q-34 -52 -47 -92q-26 10 -49 10v-152z" />
<glyph unicode="&#xbd;" horiz-adv-x="1404" d="M450 889q-80 6 -150 6q-77 -1 -150 -6v56q65 1 83.5 15t18.5 59v344q0 30 -5.5 41t-27.5 11q-21 -1 -71 -9l-13 48q111 34 217 85v-518q0 -46 17.5 -60.5t80.5 -15.5v-56zM192 -162l-92 65q439 632 1114 1681l90 -63q-457 -662 -1112 -1683zM1251 -206h-402l-20 44 q66 71 142.5 151t120.5 146.5t48 118.5q-4 99 -95 99q-75 -4 -88 -92v-10q-90 0 -95 48q23 107 213 122q169 -5 176 -148q-1 -69 -70 -159t-224 -239h165q41 0 62 18.5t32 73.5l44 -9q-14 -60 -14 -109q0 -23 5 -55z" />
<glyph unicode="&#xbe;" horiz-adv-x="1437" d="M316 760q-113 4 -216 95l26 57q92 -71 178 -71q146 13 147 150q-5 140 -139 150q-16 0 -47 -5l-11 53q163 44 163 148q-7 110 -93 110q-72 -1 -79 -75q0 -8 3 -23q-33 -10 -52 -10q-40 0 -49 48q0 42 55.5 83t154.5 48q176 -4 184 -170q-9 -112 -105 -149 q127 -19 139 -190q-16 -238 -259 -249zM225 -162l-92 65q439 632 1114 1681l90 -63q-457 -662 -1112 -1683zM1046 -381v176h-290l-37 57q246 262 293 544q74 13 146 60q-76 -333 -322 -580h210v122q56 47 110 119v-241h97q-34 -52 -47 -92q-26 10 -49 10v-152z" />
<glyph unicode="&#xbf;" horiz-adv-x="936" d="M416 -517q-303 7 -316 314q4 182 169.5 350.5t174.5 295.5q0 68 -18 122q40 18 72 18q78 0 78 -128q0 -122 -141 -307.5t-141 -354.5q0 -208 198 -208q160 18 160 166q0 38 -10 86q64 28 106 28q81 -1 88 -108q-1 -108 -120.5 -189.5t-299.5 -84.5zM480 682q-28 3 -45 42 t-56 56t-42 45q3 28 42 44.5t56 56t45 42.5q28 -3 44.5 -42.5t56 -56t42.5 -44.5q-3 -28 -42.5 -45t-56 -56t-44.5 -42z" />
<glyph unicode="&#xc0;" horiz-adv-x="1403" d="M1409 0q-157 8 -247 8q-112 0 -259 -8v70q87 0 112 16.5t25 71.5q0 30 -15 73l-98 304h-500q-120 -307 -120 -377q0 -49 25.5 -68.5t115.5 -19.5v-70q-143 8 -245 8q-82 0 -223 -8v70q69 2 110 28t70 89l480 1218l159 50l441 -1247q34 -80 59.5 -109t109.5 -29v-70z M891 641l-197 598l-226 -598h423zM799 1549q-98 213 -292 300l16 48l134 42q149 -130 192 -349z" />
<glyph unicode="&#xc1;" horiz-adv-x="1403" d="M1409 0q-157 8 -247 8q-112 0 -259 -8v70q87 0 112 16.5t25 71.5q0 30 -15 73l-98 304h-500q-120 -307 -120 -377q0 -49 25.5 -68.5t115.5 -19.5v-70q-143 8 -245 8q-82 0 -223 -8v70q69 2 110 28t70 89l480 1218l159 50l441 -1247q34 -80 59.5 -109t109.5 -29v-70z M891 641l-197 598l-226 -598h423zM633 1552l-50 41q42 220 190 350l135 -41l16 -48q-194 -88 -291 -302z" />
<glyph unicode="&#xc2;" horiz-adv-x="1403" d="M1409 0q-157 8 -247 8q-112 0 -259 -8v70q87 0 112 16.5t25 71.5q0 30 -15 73l-98 304h-500q-120 -307 -120 -377q0 -49 25.5 -68.5t115.5 -19.5v-70q-143 8 -245 8q-82 0 -223 -8v70q69 2 110 28t70 89l480 1218l159 50l441 -1247q34 -80 59.5 -109t109.5 -29v-70z M891 641l-197 598l-226 -598h423zM1002 1494l-276 232l-274 -232l-52 52l268 342h118l264 -342z" />
<glyph unicode="&#xc3;" horiz-adv-x="1403" d="M1409 0q-157 8 -247 8q-112 0 -259 -8v70q87 0 112 16.5t25 71.5q0 30 -15 73l-98 304h-500q-120 -307 -120 -377q0 -49 25.5 -68.5t115.5 -19.5v-70q-143 8 -245 8q-82 0 -223 -8v70q69 2 110 28t70 89l480 1218l159 50l441 -1247q34 -80 59.5 -109t109.5 -29v-70z M891 641l-197 598l-226 -598h423zM427 1624l-60 22q99 231 246 244q70 0 138 -55t126 -55q71 4 144 120l62 -26q-119 -238 -248 -242q-66 0 -135 55t-131 55q-91 -10 -142 -118z" />
<glyph unicode="&#xc4;" horiz-adv-x="1403" d="M1409 0q-157 8 -247 8q-112 0 -259 -8v70q87 0 112 16.5t25 71.5q0 30 -15 73l-98 304h-500q-120 -307 -120 -377q0 -49 25.5 -68.5t115.5 -19.5v-70q-143 8 -245 8q-82 0 -223 -8v70q69 2 110 28t70 89l480 1218l159 50l441 -1247q34 -80 59.5 -109t109.5 -29v-70z M891 641l-197 598l-226 -598h423zM907 1607q-28 3 -44.5 42.5t-56 56t-42.5 44.5q3 28 42.5 45t56 56t44.5 42q28 -3 45 -42t56 -56t42 -45q-3 -28 -42 -44.5t-56 -56t-45 -42.5zM536 1607q-28 3 -44.5 42.5t-56 56t-42.5 44.5q3 28 42.5 45t56 56t44.5 42q28 -3 45 -42 t56 -56t42 -45q-3 -28 -42 -44.5t-56 -56t-45 -42.5z" />
<glyph unicode="&#xc5;" horiz-adv-x="1403" d="M1409 0q-157 8 -247 8q-112 0 -259 -8v70q87 0 112 16.5t25 71.5q0 30 -15 73l-98 304h-500q-120 -307 -120 -377q0 -49 25.5 -68.5t115.5 -19.5v-70q-143 8 -245 8q-82 0 -223 -8v70q69 2 110 28t70 89l480 1218l159 50l441 -1247q34 -80 59.5 -109t109.5 -29v-70z M891 641l-197 598l-226 -598h423zM718 1518q-102 0 -172 70t-70 172t70 173t172 71t173 -71t71 -173t-70 -172t-174 -70zM718 1620q56 0 98 42t42 98q0 58 -41 98t-99 40t-98 -40t-40 -98t41 -99t97 -41z" />
<glyph unicode="&#xc6;" horiz-adv-x="2109" d="M1060 629v597l-425 -597h425zM1923 0q-254 10 -496 10q-369 -1 -570 -10v70q114 0 158.5 29.5t44.5 127.5v298h-501q-253 -340 -253 -409q0 -19 14.5 -32.5t104.5 -13.5v-70q-163 8 -265 8q-82 0 -203 -8v70q136 5 219 112q824 1068 836 1157q0 16 -89 18v70 q340 -14 536 -14q213 0 440 14q10 -152 47 -303l-66 -12q-37 124 -108.5 160t-267.5 36l-253 -4v-522h187q130 0 179.5 22.5t52.5 99.5l63 -4q-14 -122 -14 -191q0 -39 8 -179l-64 -2q0 103 -55.5 128t-166.5 25h-190v-567q120 -5 249 -5q217 0 303.5 38.5t138.5 194.5 l70 -24q-67 -171 -89 -318z" />
<glyph unicode="&#xc7;" horiz-adv-x="1384" d="M771 -20q-687 35 -715 726q37 705 737 734q190 0 413 -77q0 -153 50 -309l-72 -14q-114 281 -429 281q-473 -21 -490 -575q24 -607 536 -653q316 0 441 277l65 -33q-59 -121 -100 -261q-217 -96 -436 -96zM625 -434l-30 58q132 15 138 124q-9 88 -124 96l139 156h76 l-83 -100q132 -22 136 -132q-19 -160 -252 -202z" />
<glyph unicode="&#xc8;" horiz-adv-x="1270" d="M1084 0q-307 12 -520 12q-144 0 -501 -12v70q120 0 144.5 71.5t26.5 229.5v827q0 86 -31 119t-119 33v70q340 -14 536 -14q213 0 440 14q0 -145 47 -296l-66 -12q-37 124 -108.5 160t-267.5 36l-253 -4v-517h187q130 0 179.5 22.5t52.5 99.5l63 -4q-14 -122 -14 -196 q0 -59 8 -179l-64 -2q0 103 -55.5 128t-216.5 25h-140v-571q101 -11 249 -11q217 0 303.5 38.5t138.5 194.5l70 -24q-70 -172 -89 -308zM672 1550q-98 213 -292 300l16 48l134 42q149 -130 192 -349z" />
<glyph unicode="&#xc9;" horiz-adv-x="1270" d="M1084 0q-307 12 -520 12q-144 0 -501 -12v70q120 0 144.5 71.5t26.5 229.5v827q0 86 -31 119t-119 33v70q340 -14 536 -14q213 0 440 14q0 -145 47 -296l-66 -12q-37 124 -108.5 160t-267.5 36l-253 -4v-517h187q130 0 179.5 22.5t52.5 99.5l63 -4q-14 -122 -14 -196 q0 -59 8 -179l-64 -2q0 103 -55.5 128t-216.5 25h-140v-571q101 -11 249 -11q217 0 303.5 38.5t138.5 194.5l70 -24q-70 -172 -89 -308zM476 1552l-50 41q42 220 190 350l135 -41l16 -48q-194 -88 -291 -302z" />
<glyph unicode="&#xca;" horiz-adv-x="1270" d="M1084 0q-307 12 -520 12q-144 0 -501 -12v70q120 0 144.5 71.5t26.5 229.5v827q0 86 -31 119t-119 33v70q340 -14 536 -14q213 0 440 14q0 -145 47 -296l-66 -12q-37 124 -108.5 160t-267.5 36l-253 -4v-517h187q130 0 179.5 22.5t52.5 99.5l63 -4q-14 -122 -14 -196 q0 -59 8 -179l-64 -2q0 103 -55.5 128t-216.5 25h-140v-571q101 -11 249 -11q217 0 303.5 38.5t138.5 194.5l70 -24q-70 -172 -89 -308zM893 1496l-276 232l-274 -232l-52 52l268 342h118l264 -342z" />
<glyph unicode="&#xcb;" horiz-adv-x="1270" d="M1084 0q-307 12 -520 12q-144 0 -501 -12v70q120 0 144.5 71.5t26.5 229.5v827q0 86 -31 119t-119 33v70q340 -14 536 -14q213 0 440 14q0 -145 47 -296l-66 -12q-37 124 -108.5 160t-267.5 36l-253 -4v-517h187q130 0 179.5 22.5t52.5 99.5l63 -4q-14 -122 -14 -196 q0 -59 8 -179l-64 -2q0 103 -55.5 128t-216.5 25h-140v-571q101 -11 249 -11q217 0 303.5 38.5t138.5 194.5l70 -24q-70 -172 -89 -308zM804 1607q-28 3 -44.5 42.5t-56 56t-42.5 44.5q3 28 42.5 45t56 56t44.5 42q28 -3 45 -42t56 -56t42 -45q-3 -28 -42 -44.5t-56 -56 t-45 -42.5zM433 1607q-28 3 -44.5 42.5t-56 56t-42.5 44.5q3 28 42.5 45t56 56t44.5 42q28 -3 45 -42t56 -56t42 -45q-3 -28 -42 -44.5t-56 -56t-45 -42.5z" />
<glyph unicode="&#xcc;" horiz-adv-x="688" d="M588 0q-165 8 -261 8q-112 0 -264 -8v70q128 0 150.5 46.5t22.5 149.5v857q0 106 -17.5 166.5t-145.5 60.5v70q132 -10 254 -10q107 0 251 10v-70q-126 0 -143.5 -57.5t-17.5 -167.5v-865q0 -105 21 -147.5t150 -42.5v-70zM396 1555q-98 213 -292 300l16 48l134 42 q149 -130 192 -349z" />
<glyph unicode="&#xcd;" horiz-adv-x="688" d="M588 0q-165 8 -261 8q-112 0 -264 -8v70q128 0 150.5 46.5t22.5 149.5v857q0 106 -17.5 166.5t-145.5 60.5v70q132 -10 254 -10q107 0 251 10v-70q-126 0 -143.5 -57.5t-17.5 -167.5v-865q0 -105 21 -147.5t150 -42.5v-70zM252 1551l-50 41q42 220 190 350l135 -41 l16 -48q-194 -88 -291 -302z" />
<glyph unicode="&#xce;" horiz-adv-x="743" d="M651 0q-165 8 -261 8q-112 0 -264 -8v70q128 0 150.5 46.5t22.5 149.5v857q0 106 -17.5 166.5t-145.5 60.5v70q132 -10 254 -10q107 0 251 10v-70q-126 0 -143.5 -57.5t-17.5 -167.5v-865q0 -105 21 -147.5t150 -42.5v-70zM665 1495l-276 232l-274 -232l-52 52l268 342 h118l264 -342z" />
<glyph unicode="&#xcf;" horiz-adv-x="695" d="M598 0q-165 8 -261 8q-112 0 -264 -8v70q128 0 150.5 46.5t22.5 149.5v857q0 106 -17.5 166.5t-145.5 60.5v70q132 -10 254 -10q107 0 251 10v-70q-126 0 -143.5 -57.5t-17.5 -167.5v-865q0 -105 21 -147.5t150 -42.5v-70zM522 1611q-28 3 -44.5 42.5t-56 56t-42.5 44.5 q3 28 42.5 45t56 56t44.5 42q28 -3 45 -42t56 -56t42 -45q-3 -28 -42 -44.5t-56 -56t-45 -42.5zM151 1611q-28 3 -44.5 42.5t-56 56t-42.5 44.5q3 28 42.5 45t56 56t44.5 42q28 -3 45 -42t56 -56t42 -45q-3 -28 -42 -44.5t-56 -56t-45 -42.5z" />
<glyph unicode="&#xd0;" horiz-adv-x="1566" d="M692 89q545 14 545 588q-16 633 -572 644q-97 0 -244 -21v-1180q137 -31 271 -31zM701 -8q-50 0 -182.5 8t-214.5 8t-219 -8v70q118 0 143 55t25 203v870q0 86 -30.5 119t-116.5 33v70q129 -8 207 -8q105 0 230.5 7.5t146.5 7.5q739 -28 752 -701q-22 -712 -741 -734z M745 640h-630l-26 26l46 114h630l24 -26z" />
<glyph unicode="&#xd1;" horiz-adv-x="1613" d="M1387 -16h-108q-13 39 -125 169l-824 1001q6 -949 19 -1005q12 -47 41.5 -63t121.5 -16v-70q-180 7 -226 7q-94 0 -223 -7v70q89 0 123.5 39.5t45.5 249.5v832q0 83 -31.5 121t-137.5 38v70q90 -7 171 -7q64 0 162 7q20 -64 90 -151l775 -950q0 903 -7 944 q-11 54 -40 70.5t-125 16.5v70q173 -7 226 -7q57 0 229 7v-70q-119 0 -144 -83q-13 -58 -13 -311v-972zM486 1628l-60 22q99 231 246 244q70 0 138 -55t126 -55q71 4 144 120l62 -26q-119 -238 -248 -242q-66 0 -135 55t-131 55q-91 -10 -142 -118z" />
<glyph unicode="&#xd2;" horiz-adv-x="1577" d="M753 -20q-313 0 -505 221t-192 511q0 319 212.5 523.5t486.5 204.5q293 0 495.5 -198t202.5 -528q0 -336 -213.5 -533.5t-486.5 -200.5zM775 90q205 0 335.5 158.5t130.5 432.5q0 288 -146 470t-363 182q-205 0 -334 -156t-129 -421q0 -298 147 -482t359 -184zM873 1553 q-98 213 -292 300l16 48l134 42q149 -130 192 -349z" />
<glyph unicode="&#xd3;" horiz-adv-x="1577" d="M753 -20q-313 0 -505 221t-192 511q0 319 212.5 523.5t486.5 204.5q293 0 495.5 -198t202.5 -528q0 -336 -213.5 -533.5t-486.5 -200.5zM775 90q205 0 335.5 158.5t130.5 432.5q0 288 -146 470t-363 182q-205 0 -334 -156t-129 -421q0 -298 147 -482t359 -184zM569 1552 l-50 41q42 220 190 350l135 -41l16 -48q-194 -88 -291 -302z" />
<glyph unicode="&#xd4;" horiz-adv-x="1577" d="M753 -20q-313 0 -505 221t-192 511q0 319 212.5 523.5t486.5 204.5q293 0 495.5 -198t202.5 -528q0 -336 -213.5 -533.5t-486.5 -200.5zM775 90q205 0 335.5 158.5t130.5 432.5q0 288 -146 470t-363 182q-205 0 -334 -156t-129 -421q0 -298 147 -482t359 -184zM1022 1499 l-276 232l-274 -232l-52 52l268 342h118l264 -342z" />
<glyph unicode="&#xd5;" horiz-adv-x="1577" d="M753 -20q-313 0 -505 221t-192 511q0 319 212.5 523.5t486.5 204.5q293 0 495.5 -198t202.5 -528q0 -336 -213.5 -533.5t-486.5 -200.5zM775 90q205 0 335.5 158.5t130.5 432.5q0 288 -146 470t-363 182q-205 0 -334 -156t-129 -421q0 -298 147 -482t359 -184zM457 1622 l-60 22q99 231 246 244q70 0 138 -55t126 -55q71 4 144 120l62 -26q-119 -238 -248 -242q-66 0 -135 55t-131 55q-91 -10 -142 -118z" />
<glyph unicode="&#xd6;" horiz-adv-x="1577" d="M753 -20q-313 0 -505 221t-192 511q0 319 212.5 523.5t486.5 204.5q293 0 495.5 -198t202.5 -528q0 -336 -213.5 -533.5t-486.5 -200.5zM775 90q205 0 335.5 158.5t130.5 432.5q0 288 -146 470t-363 182q-205 0 -334 -156t-129 -421q0 -298 147 -482t359 -184zM941 1607 q-28 3 -44.5 42.5t-56 56t-42.5 44.5q3 28 42.5 45t56 56t44.5 42q28 -3 45 -42t56 -56t42 -45q-3 -28 -42 -44.5t-56 -56t-45 -42.5zM570 1607q-28 3 -44.5 42.5t-56 56t-42.5 44.5q3 28 42.5 45t56 56t44.5 42q28 -3 45 -42t56 -56t42 -45q-3 -28 -42 -44.5t-56 -56 t-45 -42.5z" />
<glyph unicode="&#xd7;" horiz-adv-x="868" d="M666 244l-232 232l-232 -232l-102 36v34l248 248l-246 248v34l102 36l230 -232l230 232l102 -36v-34l-246 -248l248 -248v-34z" />
<glyph unicode="&#xd8;" horiz-adv-x="1577" d="M429 258q303 563 535 1011q-103 64 -232 64q-205 0 -334 -156t-129 -421q0 -298 160 -498zM775 90q205 0 335.5 158.5t130.5 432.5q-8 348 -189 518q-336 -625 -542 -1019q117 -90 265 -90zM325 -178l-106 46l130 240q-285 225 -293 604q0 319 212.5 523.5t486.5 204.5 q150 0 272 -49l92 179l106 -48l-98 -182q99 -54 212 -215t114 -411q-1 -322 -208 -523.5t-492 -210.5q-173 0 -311 70z" />
<glyph unicode="&#xd9;" horiz-adv-x="1525" d="M761 -32q-250 0 -405 132.5t-155 483.5v513q0 153 -21.5 203t-133.5 50v70q141 -7 247 -7q125 0 259 7v-70q-118 0 -141.5 -52t-23.5 -246v-357q0 -340 97 -462.5t313 -123.5q206 1 302 115.5t96 369.5q0 587 -22 671q-14 49 -42 67t-107 18v70q173 -7 226 -7q54 0 227 7 v-70q-123 0 -142 -78t-19 -332v-300q0 -424 -180 -548t-375 -124zM949 1552q-98 213 -292 300l16 48l134 42q149 -130 192 -349z" />
<glyph unicode="&#xda;" horiz-adv-x="1525" d="M761 -32q-250 0 -405 132.5t-155 483.5v513q0 153 -21.5 203t-133.5 50v70q141 -7 247 -7q125 0 259 7v-70q-118 0 -141.5 -52t-23.5 -246v-357q0 -340 97 -462.5t313 -123.5q206 1 302 115.5t96 369.5q0 587 -22 671q-14 49 -42 67t-107 18v70q173 -7 226 -7q54 0 227 7 v-70q-123 0 -142 -78t-19 -332v-300q0 -424 -180 -548t-375 -124zM641 1551l-50 41q42 220 190 350l135 -41l16 -48q-194 -88 -291 -302z" />
<glyph unicode="&#xdb;" horiz-adv-x="1525" d="M761 -32q-250 0 -405 132.5t-155 483.5v513q0 153 -21.5 203t-133.5 50v70q141 -7 247 -7q125 0 259 7v-70q-118 0 -141.5 -52t-23.5 -246v-357q0 -340 97 -462.5t313 -123.5q206 1 302 115.5t96 369.5q0 587 -22 671q-14 49 -42 67t-107 18v70q173 -7 226 -7q54 0 227 7 v-70q-123 0 -142 -78t-19 -332v-300q0 -424 -180 -548t-375 -124zM1058 1496l-276 232l-274 -232l-52 52l268 342h118l264 -342z" />
<glyph unicode="&#xdc;" horiz-adv-x="1525" d="M761 -32q-250 0 -405 132.5t-155 483.5v513q0 153 -21.5 203t-133.5 50v70q141 -7 247 -7q125 0 259 7v-70q-118 0 -141.5 -52t-23.5 -246v-357q0 -340 97 -462.5t313 -123.5q206 1 302 115.5t96 369.5q0 587 -22 671q-14 49 -42 67t-107 18v70q173 -7 226 -7q54 0 227 7 v-70q-123 0 -142 -78t-19 -332v-300q0 -424 -180 -548t-375 -124zM969 1607q-28 3 -44.5 42.5t-56 56t-42.5 44.5q3 28 42.5 45t56 56t44.5 42q28 -3 45 -42t56 -56t42 -45q-3 -28 -42 -44.5t-56 -56t-45 -42.5zM598 1607q-28 3 -44.5 42.5t-56 56t-42.5 44.5q3 28 42.5 45 t56 56t44.5 42q28 -3 45 -42t56 -56t42 -45q-3 -28 -42 -44.5t-56 -56t-45 -42.5z" />
<glyph unicode="&#xdd;" horiz-adv-x="1239" d="M909 0q-163 8 -282 8q-103 0 -280 -8v70q128 0 157.5 41t35.5 159v352l-315 540q-47 80 -82.5 132.5t-131.5 55.5v70q146 -10 247 -10q89 2 239 10v-70q-123 0 -123 -52q0 -17 66 -140l236 -425q318 519 318 563q0 54 -116 54v70q118 -10 202 -10q99 0 208 10v-70 q-101 0 -143 -62t-176 -279l-245 -381v-362q6 -118 30.5 -157t154.5 -39v-70zM574 1550l-50 41q42 220 190 350l135 -41l16 -48q-194 -88 -291 -302z" />
<glyph unicode="&#xde;" horiz-adv-x="1209" d="M588 0q-165 8 -261 8q-112 0 -264 -8v70q128 0 150.5 47.5t22.5 150.5v860q0 106 -22.5 164t-140.5 58v70q132 -10 254 -10q107 0 251 10v-70q-126 0 -148 -69q-8 -25 -11 -75h140q544 0 544 -391q-4 -212 -137 -332t-393 -131l-80 -2q57 49 134.5 59t135.5 58 q123 101 123 313q0 355 -327 367l-142 7v-892q0 -105 21 -148.5t150 -43.5v-70z" />
<glyph unicode="&#xdf;" horiz-adv-x="1216" d="M783 -30q-180 12 -270 76q24 93 24 256l42 -14q32 -192 240 -210q153 16 160 138q-3 156 -228 257.5t-228 256.5q0 155 162.5 220t167.5 202q-13 262 -252 266q-134 0 -175 -119t-41 -287v-1012q-79 8 -158 10q-79 -2 -158 -10v70q58 0 97 28t39 140v718q0 284 130.5 436 t355.5 158q312 -4 344 -360q-5 -208 -174.5 -277t-169.5 -153q9 -91 228.5 -186t219.5 -290q-17 -300 -356 -314z" />
<glyph unicode="&#xe0;" horiz-adv-x="1011" d="M411 103q80 0 224 89v364q-42 -107 -212.5 -134.5t-170.5 -164.5q1 -154 159 -154zM783 -20q-135 0 -144 135q-200 -135 -306 -135q-239 0 -239 267q0 221 271.5 264t272.5 242q0 128 -147 128q-154 0 -166 -159q0 -19 2 -27q-26 -4 -46 -4q-119 0 -122 97 q14 184 318 194q340 0 340 -295v-485q0 -106 48 -106q32 1 122 44l30 -61q-154 -99 -234 -99zM592 1073q-98 213 -292 300l16 48l134 42q149 -130 192 -349z" />
<glyph unicode="&#xe1;" horiz-adv-x="1011" d="M411 103q80 0 224 89v364q-42 -107 -212.5 -134.5t-170.5 -164.5q1 -154 159 -154zM783 -20q-135 0 -144 135q-200 -135 -306 -135q-239 0 -239 267q0 221 271.5 264t272.5 242q0 128 -147 128q-154 0 -166 -159q0 -19 2 -27q-26 -4 -46 -4q-119 0 -122 97 q14 184 318 194q340 0 340 -295v-485q0 -106 48 -106q32 1 122 44l30 -61q-154 -99 -234 -99zM318 1068l-50 41q42 220 190 350l135 -41l16 -48q-194 -88 -291 -302z" />
<glyph unicode="&#xe2;" horiz-adv-x="1033" d="M386 103q80 0 224 89v364q-42 -107 -212.5 -134.5t-170.5 -164.5q1 -154 159 -154zM758 -20q-135 0 -144 135q-200 -135 -306 -135q-239 0 -239 267q0 221 271.5 264t272.5 242q0 128 -147 128q-154 0 -166 -159q0 -19 2 -27q-26 -4 -46 -4q-119 0 -122 97 q14 184 318 194q340 0 340 -295v-485q0 -106 48 -106q32 1 122 44l30 -61q-154 -99 -234 -99zM736 1054l-276 232l-274 -232l-52 52l268 342h118l264 -342z" />
<glyph unicode="&#xe3;" horiz-adv-x="1053" d="M386 103q80 0 224 89v364q-42 -107 -212.5 -134.5t-170.5 -164.5q1 -154 159 -154zM758 -20q-135 0 -144 135q-200 -135 -306 -135q-239 0 -239 267q0 221 271.5 264t272.5 242q0 128 -147 128q-154 0 -166 -159q0 -19 2 -27q-26 -4 -46 -4q-119 0 -122 97 q14 184 318 194q340 0 340 -295v-485q0 -106 48 -106q32 1 122 44l30 -61q-154 -99 -234 -99zM174 1152l-60 22q99 231 246 244q70 0 138 -55t126 -55q71 4 144 120l62 -26q-119 -238 -248 -242q-66 0 -135 55t-131 55q-91 -10 -142 -118z" />
<glyph unicode="&#xe4;" horiz-adv-x="1048" d="M401 103q80 0 224 89v364q-42 -107 -212.5 -134.5t-170.5 -164.5q1 -154 159 -154zM773 -20q-135 0 -144 135q-200 -135 -306 -135q-239 0 -239 267q0 221 271.5 264t272.5 242q0 128 -147 128q-154 0 -166 -159q0 -19 2 -27q-26 -4 -46 -4q-119 0 -122 97 q14 184 318 194q340 0 340 -295v-485q0 -106 48 -106q32 1 122 44l30 -61q-154 -99 -234 -99zM666 1187q-28 3 -44.5 42.5t-56 56t-42.5 44.5q3 28 42.5 45t56 56t44.5 42q28 -3 45 -42t56 -56t42 -45q-3 -28 -42 -44.5t-56 -56t-45 -42.5zM295 1187q-28 3 -44.5 42.5 t-56 56t-42.5 44.5q3 28 42.5 45t56 56t44.5 42q28 -3 45 -42t56 -56t42 -45q-3 -28 -42 -44.5t-56 -56t-45 -42.5z" />
<glyph unicode="&#xe5;" horiz-adv-x="1033" d="M472 1110q-102 0 -172 70t-70 172t70 173t172 71t173 -71t71 -173t-70 -172t-174 -70zM472 1212q56 0 98 42t42 98q0 58 -41 98t-99 40t-98 -40t-40 -98t41 -99t97 -41zM386 103q80 0 224 89v364q-42 -107 -212.5 -134.5t-170.5 -164.5q1 -154 159 -154zM758 -20 q-135 0 -144 135q-200 -135 -306 -135q-239 0 -239 267q0 221 271.5 264t272.5 242q0 128 -147 128q-154 0 -166 -159q0 -19 2 -27q-26 -4 -46 -4q-119 0 -122 97q14 184 318 194q340 0 340 -295v-485q0 -106 48 -106q32 1 122 44l30 -61q-154 -99 -234 -99z" />
<glyph unicode="&#xe6;" horiz-adv-x="1483" d="M417 103q80 0 224 99v344q-42 -77 -212.5 -124.5t-170.5 -174.5q1 -144 159 -144zM769 505l346 77q125 24 125 143q-19 180 -198 180q-271 -28 -273 -400zM1012 -20q-223 0 -327 165q-200 -165 -346 -165q-239 0 -239 257q10 231 276.5 279t267.5 237q0 128 -147 128 q-154 0 -166 -159q0 -19 2 -27q-26 -4 -46 -4q-119 0 -122 97q14 184 318 194q199 0 281 -101q118 107 290 107q321 0 371 -407l-650 -142q28 -324 317 -349q206 13 293 168l47 -34q-131 -244 -420 -244z" />
<glyph unicode="&#xe7;" horiz-adv-x="925" d="M493 -20q-165 0 -285.5 127.5t-120.5 341.5q0 219 132 379t360 160q258 -7 264 -117q0 -72 -63 -100q-54 127 -225 127q-94 0 -189 -90.5t-95 -308.5q0 -165 86 -280t230 -115q133 5 248 81l39 -71q-171 -134 -381 -134zM374 -434l-30 58q132 15 138 124q-9 88 -124 96 l139 156h76l-83 -100q132 -22 136 -132q-19 -160 -252 -202z" />
<glyph unicode="&#xe8;" horiz-adv-x="1027" d="M510 -20q-223 0 -323 141t-100 342q0 212 129 368.5t336 156.5q321 0 371 -407l-650 -142q28 -349 317 -349q206 0 293 168l47 -34q-131 -244 -420 -244zM267 505l346 77q125 28 125 143q-19 180 -198 180q-271 -28 -273 -400zM704 1075q-98 213 -292 300l16 48l134 42 q149 -130 192 -349z" />
<glyph unicode="&#xe9;" horiz-adv-x="989" d="M518 -20q-223 0 -323 141t-100 342q0 212 129 368.5t336 156.5q321 0 371 -407l-650 -142q28 -349 317 -349q206 0 293 168l47 -34q-131 -244 -420 -244zM275 505l346 77q125 28 125 143q-19 180 -198 180q-271 -28 -273 -400zM356 1072l-50 41q42 220 190 350l135 -41 l16 -48q-194 -88 -291 -302z" />
<glyph unicode="&#xea;" horiz-adv-x="989" d="M518 -20q-223 0 -323 141t-100 342q0 212 129 368.5t336 156.5q321 0 371 -407l-650 -142q28 -349 317 -349q206 0 293 168l47 -34q-131 -244 -420 -244zM275 505l346 77q125 28 125 143q-19 180 -198 180q-271 -28 -273 -400zM807 1059l-276 232l-274 -232l-52 52 l268 342h118l264 -342z" />
<glyph unicode="&#xeb;" horiz-adv-x="1026" d="M509 -20q-223 0 -323 141t-100 342q0 212 129 368.5t336 156.5q321 0 371 -407l-650 -142q28 -349 317 -349q206 0 293 168l47 -34q-131 -244 -420 -244zM266 505l346 77q125 28 125 143q-19 180 -198 180q-271 -28 -273 -400zM705 1197q-28 3 -44.5 42.5t-56 56 t-42.5 44.5q3 28 42.5 45t56 56t44.5 42q28 -3 45 -42t56 -56t42 -45q-3 -28 -42 -44.5t-56 -56t-45 -42.5zM334 1197q-28 3 -44.5 42.5t-56 56t-42.5 44.5q3 28 42.5 45t56 56t44.5 42q28 -3 45 -42t56 -56t42 -45q-3 -28 -42 -44.5t-56 -56t-45 -42.5z" />
<glyph unicode="&#xec;" horiz-adv-x="623" d="M546 0q-84 6 -206 7q-122 -1 -211 -7v70q124 0 124 88v580q0 155 -101 155v62q166 38 276 115q-6 -121 -6 -186v-726q0 -88 124 -88v-70zM300 1079q-98 213 -292 300l16 48l134 42q149 -130 192 -349z" />
<glyph unicode="&#xed;" horiz-adv-x="605" d="M511 0q-84 6 -206 7q-122 -1 -211 -7v70q124 0 124 88v580q0 155 -101 155v62q166 38 276 115q-6 -121 -6 -186v-726q0 -88 124 -88v-70zM245 1073l-50 41q42 220 190 350l135 -41l16 -48q-194 -88 -291 -302z" />
<glyph unicode="&#xee;" horiz-adv-x="659" d="M547 0q-84 6 -206 7q-122 -1 -211 -7v70q124 0 124 88v580q0 155 -101 155v62q166 38 276 115q-6 -121 -6 -186v-726q0 -88 124 -88v-70zM590 1058l-276 232l-274 -232l-52 52l268 342h118l264 -342z" />
<glyph unicode="&#xef;" horiz-adv-x="640" d="M546 0q-84 6 -206 7q-122 -1 -211 -7v70q124 0 124 88v580q0 155 -101 155v62q166 38 276 115q-6 -121 -6 -186v-726q0 -88 124 -88v-70zM522 1197q-28 3 -44.5 42.5t-56 56t-42.5 44.5q3 28 42.5 45t56 56t44.5 42q28 -3 45 -42t56 -56t42 -45q-3 -28 -42 -44.5t-56 -56 t-45 -42.5zM151 1197q-28 3 -44.5 42.5t-56 56t-42.5 44.5q3 28 42.5 45t56 56t44.5 42q28 -3 45 -42t56 -56t42 -45q-3 -28 -42 -44.5t-56 -56t-45 -42.5z" />
<glyph unicode="&#xf0;" horiz-adv-x="1118" d="M624 102q117 0 195 91.5t78 269.5q0 184 -69.5 300.5t-114.5 126.5t-89 10q-164 0 -250.5 -116t-86.5 -280q0 -158 94.5 -280t242.5 -122zM541 -20q-166 0 -300 122.5t-134 330.5q0 247 149.5 401t380.5 154q-66 86 -268 232t-202 294q0 73 99 161l42 -30 q-35 -34 -35 -69q0 -107 386 -373t386 -632q0 -264 -151.5 -427.5t-352.5 -163.5zM114 932l-28 121q125 95 188 144t148.5 108.5t155.5 116.5t240 211l31 -125q-172 -135 -243.5 -194.5t-161.5 -121.5t-150.5 -111.5t-179.5 -148.5z" />
<glyph unicode="&#xf1;" horiz-adv-x="1126" d="M1116 0q-83 9 -204 9t-209 -9v70q123 0 124 87v494q0 225 -190 225q-128 0 -258 -102v-617q0 -87 123 -87v-70q-83 9 -204 9t-209 -9v70q123 0 123 87v528q-1 154 -101 154v61q164 38 273 114q-5 -95 -5 -177q179 151 353 151q146 0 203.5 -83.5t57.5 -266.5v-481 q0 -87 123 -87v-70zM291 1151l-60 22q99 231 246 244q70 0 138 -55t126 -55q71 4 144 120l62 -26q-119 -238 -248 -242q-66 0 -135 55t-131 55q-91 -10 -142 -118z" />
<glyph unicode="&#xf2;" horiz-adv-x="1123" d="M563 51q122 0 190 106.5t68 296.5q0 214 -74 338.5t-198 124.5q-122 0 -190 -106t-68 -297q0 -215 73 -339t199 -124zM549 -20q-201 0 -332 138t-131 362q0 222 135.5 365t341.5 143q201 0 332 -143t131 -367q0 -222 -135 -360t-342 -138zM765 1075q-98 213 -292 300 l16 48l134 42q149 -130 192 -349z" />
<glyph unicode="&#xf3;" horiz-adv-x="1132" d="M572 51q122 0 190 106.5t68 296.5q0 214 -74 338.5t-198 124.5q-122 0 -190 -106t-68 -297q0 -215 73 -339t199 -124zM558 -20q-201 0 -332 138t-131 362q0 222 135.5 365t341.5 143q201 0 332 -143t131 -367q0 -222 -135 -360t-342 -138zM352 1074l-50 41 q42 220 190 350l135 -41l16 -48q-194 -88 -291 -302z" />
<glyph unicode="&#xf4;" horiz-adv-x="1132" d="M572 51q122 0 190 106.5t68 296.5q0 214 -74 338.5t-198 124.5q-122 0 -190 -106t-68 -297q0 -215 73 -339t199 -124zM558 -20q-201 0 -332 138t-131 362q0 222 135.5 365t341.5 143q201 0 332 -143t131 -367q0 -222 -135 -360t-342 -138zM842 1059l-276 232l-274 -232 l-52 52l268 342h118l264 -342z" />
<glyph unicode="&#xf5;" horiz-adv-x="1121" d="M561 51q122 0 190 106.5t68 296.5q0 214 -74 338.5t-198 124.5q-122 0 -190 -106t-68 -297q0 -215 73 -339t199 -124zM547 -20q-201 0 -332 138t-131 362q0 222 135.5 365t341.5 143q201 0 332 -143t131 -367q0 -222 -135 -360t-342 -138zM256 1148l-60 22 q99 231 246 244q70 0 138 -55t126 -55q71 4 144 120l62 -26q-119 -238 -248 -242q-66 0 -135 55t-131 55q-91 -10 -142 -118z" />
<glyph unicode="&#xf6;" horiz-adv-x="1123" d="M563 51q122 0 190 106.5t68 296.5q0 214 -74 338.5t-198 124.5q-122 0 -190 -106t-68 -297q0 -215 73 -339t199 -124zM549 -20q-201 0 -332 138t-131 362q0 222 135.5 365t341.5 143q201 0 332 -143t131 -367q0 -222 -135 -360t-342 -138zM743 1197q-28 3 -44.5 42.5 t-56 56t-42.5 44.5q3 28 42.5 45t56 56t44.5 42q28 -3 45 -42t56 -56t42 -45q-3 -28 -42 -44.5t-56 -56t-45 -42.5zM372 1197q-28 3 -44.5 42.5t-56 56t-42.5 44.5q3 28 42.5 45t56 56t44.5 42q28 -3 45 -42t56 -56t42 -45q-3 -28 -42 -44.5t-56 -56t-45 -42.5z" />
<glyph unicode="&#xf7;" horiz-adv-x="874" d="M438 816q-28 3 -44.5 42.5t-56 56t-42.5 44.5q3 28 42.5 45t56 56t44.5 42q28 -3 45 -42t56 -56t42 -45q-3 -28 -42 -44.5t-56 -56t-45 -42.5zM436 163q-28 3 -44.5 42.5t-56 56t-42.5 44.5q3 28 42.5 45t56 56t44.5 42q28 -3 45 -42t56 -56t42 -45q-3 -28 -42 -44.5 t-56 -56t-45 -42.5zM740 567h-612l-28 28l36 104h610l28 -38z" />
<glyph unicode="&#xf8;" horiz-adv-x="1123" d="M563 52q122 0 190 106.5t68 296.5q0 214 -74 338.5t-198 124.5q-122 0 -190 -106t-68 -297q0 -215 73 -339t199 -124zM549 -19q-201 0 -332 138t-131 362q0 222 135.5 365t341.5 143q201 0 332 -143t131 -367q0 -222 -135 -360t-342 -138zM351 -350h-90l501 1670h90z" />
<glyph unicode="&#xf9;" horiz-adv-x="1104" d="M756 -30v132q-203 -122 -348 -122q-249 0 -249 323v438q0 172 -82 172v30l251 56v-631q0 -261 224 -261q92 0 204 62v564q0 175 -81 176l-1 34l254 56v-618q6 -177 23.5 -234t95.5 -59v-46zM607 1073q-98 213 -292 300l16 48l134 42q149 -130 192 -349z" />
<glyph unicode="&#xfa;" horiz-adv-x="1104" d="M756 -30v132q-203 -122 -348 -122q-249 0 -249 323v438q0 172 -82 172v30l251 56v-631q0 -261 224 -261q92 0 204 62v564q0 175 -81 176l-1 34l254 56v-618q6 -177 23.5 -234t95.5 -59v-46zM367 1074l-50 41q42 220 190 350l135 -41l16 -48q-194 -88 -291 -302z" />
<glyph unicode="&#xfb;" horiz-adv-x="1097" d="M749 -30v132q-203 -122 -348 -122q-249 0 -249 323v438q0 172 -82 172v30l251 56v-631q0 -261 224 -261q92 0 204 62v564q0 175 -81 176l-1 34l254 56v-618q6 -177 23.5 -234t95.5 -59v-46zM793 1056l-276 232l-274 -232l-52 52l268 342h118l264 -342z" />
<glyph unicode="&#xfc;" horiz-adv-x="1097" d="M749 -30v132q-203 -122 -348 -122q-249 0 -249 323v438q0 172 -82 172v30l251 56v-631q0 -261 224 -261q92 0 204 62v564q0 175 -81 176l-1 34l254 56v-618q6 -177 23.5 -234t95.5 -59v-46zM706 1197q-28 3 -44.5 42.5t-56 56t-42.5 44.5q3 28 42.5 45t56 56t44.5 42 q28 -3 45 -42t56 -56t42 -45q-3 -28 -42 -44.5t-56 -56t-45 -42.5zM335 1197q-28 3 -44.5 42.5t-56 56t-42.5 44.5q3 28 42.5 45t56 56t44.5 42q28 -3 45 -42t56 -56t42 -45q-3 -28 -42 -44.5t-56 -56t-45 -42.5z" />
<glyph unicode="&#xfd;" horiz-adv-x="1039" d="M126 -554q-148 3 -162 116q2 60 40 90q32 -69 106 -70q140 0 260 286l59 132q-313 834 -345 866t-78 32v70q136 -12 196 -12q58 0 208 12v-70q-78 0 -98 -12t-20 -50q0 -28 228 -634q252 586 252 638q0 36 -25 47t-83 11v70q90 -10 172 -10q66 0 168 10v-70 q-74 0 -104 -60q-58 -136 -372 -840q-102 -315 -185 -433.5t-217 -118.5zM421 1072l-50 41q42 220 190 350l135 -41l16 -48q-194 -88 -291 -302z" />
<glyph unicode="&#xfe;" horiz-adv-x="1195" d="M616 66q146 0 231 103t85 273q0 186 -84 303t-216 117q-122 0 -252 -90v-646q130 -60 236 -60zM128 -582l-26 58l92 96q24 20 24 82v1634q0 72 -68 72q-16 0 -60 -8l-16 64q160 26 316 86q-10 -302 -10 -656q194 142 330 142q166 0 277 -138t111 -326q0 -246 -141 -395 t-391 -149q-92 0 -186 34v-396q0 -84 -62 -112z" />
<glyph unicode="&#xff;" horiz-adv-x="1051" d="M138 -554q-148 3 -162 116q2 60 40 90q32 -69 106 -70q140 0 260 286l59 132q-313 834 -345 866t-78 32v70q136 -12 196 -12q58 0 208 12v-70q-78 0 -98 -12t-20 -50q0 -28 228 -634q252 586 252 638q0 36 -25 47t-83 11v70q90 -10 172 -10q66 0 168 10v-70 q-74 0 -104 -60q-58 -136 -372 -840q-102 -315 -185 -433.5t-217 -118.5zM722 1200q-28 3 -44.5 42.5t-56 56t-42.5 44.5q3 28 42.5 45t56 56t44.5 42q28 -3 45 -42t56 -56t42 -45q-3 -28 -42 -44.5t-56 -56t-45 -42.5zM351 1200q-28 3 -44.5 42.5t-56 56t-42.5 44.5 q3 28 42.5 45t56 56t44.5 42q28 -3 45 -42t56 -56t42 -45q-3 -28 -42 -44.5t-56 -56t-45 -42.5z" />
<glyph unicode="&#x131;" horiz-adv-x="579" d="M502 0q-84 6 -206 7q-122 -1 -211 -7v70q124 0 124 88v580q0 155 -101 155v62q166 38 276 115q-6 -121 -6 -186v-726q0 -88 124 -88v-70z" />
<glyph unicode="&#x152;" horiz-adv-x="2245" d="M761 96q201 0 328.5 155.5t127.5 423.5q0 282 -143 460.5t-355 178.5q-201 0 -327.5 -153t-126.5 -412q0 -293 144 -473t352 -180zM739 -8q-307 0 -495 214.5t-188 498.5q0 313 208.5 516t476.5 203q25 0 403 -4.5t462 -4.5q208 0 431 14q10 -150 46 -298l-65 -12 q-36 122 -106 157t-262 35l-533 2q284 -199 306 -537h162q127 0 175.5 22t51.5 98l62 -4q-14 -120 -14 -177q0 -49 8 -186l-63 -2q0 101 -54 125.5t-162 24.5h-164q-11 -369 -324 -581l545 1q212 0 297 37.5t136 190.5l69 -23q-69 -169 -88 -308q-301 9 -509 9z" />
<glyph unicode="&#x153;" horiz-adv-x="1753" d="M563 57q122 0 190 101.5t68 291.5q0 214 -74 338.5t-198 124.5q-122 0 -190 -106t-68 -297q0 -215 73 -334t199 -119zM999 495l343 87q124 25 124 143q-15 190 -196 200q-116 0 -193.5 -116.5t-77.5 -313.5zM1240 -19q-205 0 -327 157q-147 -157 -364 -157 q-201 0 -332 137.5t-131 361.5q0 222 135.5 365t341.5 143q231 0 363 -180q126 174 355 180q314 0 368 -397l-644 -162q23 -186 112 -267.5t202 -81.5q190 11 290 178l47 -34q-141 -243 -416 -243z" />
<glyph unicode="&#x178;" horiz-adv-x="1239" d="M909 0q-163 8 -282 8q-103 0 -280 -8v70q128 0 157.5 41t35.5 159v352l-315 540q-47 80 -82.5 132.5t-131.5 55.5v70q146 -10 247 -10q89 2 239 10v-70q-123 0 -123 -52q0 -17 66 -140l236 -425q318 519 318 563q0 54 -116 54v70q118 -10 202 -10q99 0 208 10v-70 q-101 0 -143 -62t-176 -279l-245 -381v-362q6 -118 30.5 -157t154.5 -39v-70zM864 1607q-28 3 -44.5 42.5t-56 56t-42.5 44.5q3 28 42.5 45t56 56t44.5 42q28 -3 45 -42t56 -56t42 -45q-3 -28 -42 -44.5t-56 -56t-45 -42.5zM493 1607q-28 3 -44.5 42.5t-56 56t-42.5 44.5 q3 28 42.5 45t56 56t44.5 42q28 -3 45 -42t56 -56t42 -45q-3 -28 -42 -44.5t-56 -56t-45 -42.5z" />
<glyph unicode="&#x237;" horiz-adv-x="545" d="M-24 -583q-81 0 -100 82q0 41 23 73q56 -60 148 -60q154 1 154 242v984q0 155 -101 155v62q166 38 276 115q-6 -121 -6 -186v-779q-1 -339 -112.5 -513.5t-281.5 -174.5z" />
<glyph unicode="&#x2c6;" horiz-adv-x="850" d="M702 1066l-276 232l-274 -232l-52 52l268 342h118l264 -342z" />
<glyph unicode="&#x2da;" horiz-adv-x="686" d="M342 1102q-102 0 -172 70t-70 172t70 173t172 71t173 -71t71 -173t-70 -172t-174 -70zM342 1204q56 0 98 42t42 98q0 58 -41 98t-99 40t-98 -40t-40 -98t41 -99t97 -41z" />
<glyph unicode="&#x2dc;" horiz-adv-x="916" d="M160 1156l-60 22q99 231 246 244q70 0 138 -55t126 -55q71 4 144 120l62 -26q-119 -238 -248 -242q-66 0 -135 55t-131 55q-91 -10 -142 -118z" />
<glyph unicode="&#x338;" horiz-adv-x="0" d="M-654 -128h-90l501 1670h90z" />
<glyph unicode="&#x3bc;" horiz-adv-x="1239" d="M163 -495l-72 30q155 534 155 1226q0 125 -132 125v41q169 26 246 67l39 -44v-562q0 -75 52 -157.5t134 -82.5q156 0 263 160v470q-10 105 -39 155q109 31 179 61l29 -39q-11 -52 -16 -166v-501q0 -171 39 -171q52 5 108 29l11 -47q-170 -113 -227 -115q-76 0 -84 215 q-145 -214 -296 -219q-126 4 -222 160l-61 -373q0 -128 80 -191q-87 -25 -186 -71z" />
<glyph unicode="&#x2000;" horiz-adv-x="1002" />
<glyph unicode="&#x2001;" horiz-adv-x="2004" />
<glyph unicode="&#x2002;" horiz-adv-x="1002" />
<glyph unicode="&#x2003;" horiz-adv-x="2004" />
<glyph unicode="&#x2004;" horiz-adv-x="668" />
<glyph unicode="&#x2005;" horiz-adv-x="501" />
<glyph unicode="&#x2006;" horiz-adv-x="334" />
<glyph unicode="&#x2007;" horiz-adv-x="334" />
<glyph unicode="&#x2008;" horiz-adv-x="250" />
<glyph unicode="&#x2009;" horiz-adv-x="400" />
<glyph unicode="&#x200a;" horiz-adv-x="111" />
<glyph unicode="&#x2010;" horiz-adv-x="802" d="M684 460h-612l-28 28l36 104h610l28 -38z" />
<glyph unicode="&#x2011;" horiz-adv-x="802" d="M684 460h-612l-28 28l36 104h610l28 -38z" />
<glyph unicode="&#x2012;" horiz-adv-x="802" d="M684 460h-612l-28 28l36 104h610l28 -38z" />
<glyph unicode="&#x2013;" horiz-adv-x="1224" d="M1090 448h-990l34 110h990z" />
<glyph unicode="&#x2014;" horiz-adv-x="2148" d="M2014 448h-1914l34 110h1914z" />
<glyph unicode="&#x2018;" horiz-adv-x="532" d="M406 1482l52 -66q-150 -100 -150 -209q1 -96 57.5 -121.5t59.5 -53.5q-3 -28 -42.5 -45t-56 -56t-44.5 -42q-28 3 -45 42t-56 56t-47 43t-8 70q0 70 73 174t207 208z" />
<glyph unicode="&#x2019;" horiz-adv-x="532" d="M152 856l-52 66q150 100 150 209q-1 96 -57.5 121.5t-59.5 53.5q3 28 42.5 45t56 56t44.5 42q28 -3 45 -42t56 -56t47 -43t8 -70q0 -70 -73 -174t-207 -208z" />
<glyph unicode="&#x201a;" horiz-adv-x="532" d="M152 -312l-52 66q150 100 150 209q-1 96 -57.5 121.5t-59.5 53.5q3 28 42.5 45t56 56t44.5 42q28 -3 45 -42t56 -56t47 -43t8 -70q0 -70 -73 -174t-207 -208z" />
<glyph unicode="&#x201c;" horiz-adv-x="928" d="M802 1478l52 -66q-150 -100 -150 -209q1 -96 57.5 -121.5t59.5 -53.5q-3 -28 -42.5 -45t-56 -56t-44.5 -42q-28 3 -45 42t-56 56t-47 43t-8 70q0 70 73 174t207 208zM406 1478l52 -66q-150 -100 -150 -209q1 -96 57.5 -121.5t59.5 -53.5q-3 -28 -42.5 -45t-56 -56 t-44.5 -42q-28 3 -45 42t-56 56t-47 43t-8 70q0 70 73 174t207 208z" />
<glyph unicode="&#x201d;" horiz-adv-x="918" d="M152 889l-52 66q150 100 150 209q-1 96 -57.5 121.5t-59.5 53.5q3 28 42.5 45t56 56t44.5 42q28 -3 45 -42t56 -56t47 -43t8 -70q0 -70 -73 -174t-207 -208zM538 889l-52 66q150 100 150 209q-1 96 -57.5 121.5t-59.5 53.5q3 28 42.5 45t56 56t44.5 42q28 -3 45 -42 t56 -56t47 -43t8 -70q0 -70 -73 -174t-207 -208z" />
<glyph unicode="&#x201e;" horiz-adv-x="930" d="M550 -312l-52 66q150 100 150 209q-1 96 -57.5 121.5t-59.5 53.5q3 28 42.5 45t56 56t44.5 42q28 -3 45 -42t56 -56t47 -43t8 -70q0 -70 -73 -174t-207 -208zM152 -312l-52 66q150 100 150 209q-1 96 -57.5 121.5t-59.5 53.5q3 28 42.5 45t56 56t44.5 42q28 -3 45 -42 t56 -56t47 -43t8 -70q0 -70 -73 -174t-207 -208z" />
<glyph unicode="&#x2022;" horiz-adv-x="810" d="M405 422q-59 6 -95 90t-120 120t-90 95q6 59 90 95t120 120t95 90q59 -6 95 -90t120 -120t90 -95q-6 -59 -90 -95t-120 -120t-95 -90z" />
<glyph unicode="&#x2026;" horiz-adv-x="1756" d="M1513 0q-28 3 -44.5 42.5t-56 56t-42.5 44.5q3 28 42.5 45t56 56t44.5 42q28 -3 45 -42t56 -56t42 -45q-3 -28 -42 -44.5t-56 -56t-45 -42.5zM878 0q-28 3 -44.5 42.5t-56 56t-42.5 44.5q3 28 42.5 45t56 56t44.5 42q28 -3 45 -42t56 -56t42 -45q-3 -28 -42 -44.5 t-56 -56t-45 -42.5zM243 0q-28 3 -44.5 42.5t-56 56t-42.5 44.5q3 28 42.5 45t56 56t44.5 42q28 -3 45 -42t56 -56t42 -45q-3 -28 -42 -44.5t-56 -56t-45 -42.5z" />
<glyph unicode="&#x202f;" horiz-adv-x="400" />
<glyph unicode="&#x2039;" horiz-adv-x="622" d="M474 12l-374 418l2 74l372 414l46 -34l-220 -416l222 -420z" />
<glyph unicode="&#x203a;" horiz-adv-x="620" d="M148 12l-48 36l220 418l-220 418l48 34l372 -416v-72z" />
<glyph unicode="&#x2044;" horiz-adv-x="1404" d="M192 -162l-92 65q439 632 1114 1681l90 -63q-457 -662 -1112 -1683z" />
<glyph unicode="&#x205f;" horiz-adv-x="501" />
<glyph unicode="&#x2082;" horiz-adv-x="631" d="M522 -206h-402l-20 44q66 71 142.5 151t120.5 146.5t48 118.5q-4 99 -95 99q-75 -4 -88 -92v-10q-90 0 -95 48q23 107 213 122q169 -5 176 -148q-1 -69 -70 -159t-224 -239h165q41 0 62 18.5t32 73.5l44 -9q-14 -60 -14 -109q0 -23 5 -55z" />
<glyph unicode="&#x2084;" horiz-adv-x="734" d="M427 -381v176h-290l-37 57q246 262 293 544q74 13 146 60q-76 -333 -322 -580h210v122q56 47 110 119v-241h97q-34 -52 -47 -92q-26 10 -49 10v-152z" />
<glyph unicode="&#x20ac;" horiz-adv-x="1427" d="M813 -32q-262 0 -440 171.5t-206 459.5h-76l19 58h53q0 87 2 126h-76l21 58h62q34 263 214.5 432.5t455.5 169.5q182 0 394 -78v-31q0 -124 45 -281l-65 -14q-102 284 -409 284q-195 0 -313 -124.5t-137 -357.5h596l-28 -58h-572q0 -83 4 -126h512l-25 -58h-481 q28 -226 156 -371.5t321 -145.5q278 0 392 280l58 -33q-52 -122 -89 -264q-190 -97 -388 -97z" />
<glyph unicode="&#x2122;" horiz-adv-x="1464" d="M484 959q-64 4 -112 4q-40 0 -110 -4v49q42 0 53 13.5t11 96.5v363h-69q-53 0 -71.5 -13.5t-47.5 -66.5l-38 22q29 64 29 137q33 -12 143 -12h215q101 0 132 13q0 -81 24 -139l-45 -20q-18 52 -37.5 65t-73.5 14h-65v-363q0 -84 9.5 -97t52.5 -13v-49zM1364 959 q-73 4 -111 4q-41 0 -111 -4v49q52 0 61 8t12 35l-32 349l-143 -326q-20 -45 -30 -94h-42q-6 29 -30 86l-140 311l-18 -313q0 -38 7.5 -47t60.5 -9v-49q-67 4 -104 4q-33 0 -98 -4v49q41 0 51 4t16 24l30 427q0 21 -10.5 29t-52.5 8v49q66 -5 84 -5l80 5q0 -50 132 -338 l30 -66l102 227q54 123 58 147l1 30q56 -4 83 -4q28 0 81 4v-49q-43 -1 -53 -10.5t-10 -37.5q0 -34 17.5 -221t21.5 -205t57 -18v-49z" />
<glyph unicode="&#x25fc;" horiz-adv-x="970" d="M0 970h970v-970h-970v970z" />
<glyph unicode="&#xa77a;" horiz-adv-x="1119" d="M601 102q117 0 195 91.5t78 269.5q0 184 -69.5 300.5t-114.5 126.5t-89 10q-164 0 -250.5 -116t-86.5 -280q0 -158 94.5 -280t242.5 -122zM518 -20q-166 0 -300 122.5t-134 330.5q0 247 149.5 401t380.5 154q-66 86 -268 232t-202 294q0 73 99 161l42 -30 q-35 -34 -35 -69q0 -107 386 -373t386 -632q0 -264 -151.5 -427.5t-352.5 -163.5z" />
<glyph unicode="&#xf8d3;" horiz-adv-x="963" d="M128 382l-28 121q125 95 188 144t148.5 108.5t155.5 116.5t240 211l31 -125q-172 -135 -243.5 -194.5t-161.5 -121.5t-150.5 -111.5t-179.5 -148.5z" />
</font>
</defs>
</svg>
